<svg width="320" height="188" viewBox="0 0 320 188" fill="none" xmlns="http://www.w3.org/2000/svg">
<g clip-path="url(#clip0_538_25803)">
<path d="M93.3496 52.3846L45.4888 84.3882L92.6292 154.837L140.49 122.833L93.3496 52.3846Z" fill="#F9FAFB"/>
<path d="M115.759 119.498L115.216 122.859L91.4238 119.433L91.9668 116.072L115.759 119.498Z" fill="#D2D6DB"/>
<path d="M103.777 107.511L107.191 108.003L103.406 131.42L99.9917 130.929L103.777 107.511Z" fill="#D2D6DB"/>
<path d="M81.8627 77.7477C81.8968 77.7988 77.1003 81.0655 71.1512 85.0434C65.2 89.0226 60.3492 92.2061 60.3151 92.155C60.281 92.1042 65.0763 88.838 71.0279 84.8588C76.977 80.8809 81.8286 77.6969 81.8627 77.7477Z" fill="#D2D6DB"/>
<path d="M99.464 73.3312C99.4981 73.3823 91.522 78.775 81.6517 85.3745C71.7775 91.9765 63.7481 97.2856 63.714 97.2344C63.6799 97.1837 71.6542 91.7918 81.528 85.1898C91.3983 78.5904 99.4298 73.2804 99.464 73.3312Z" fill="#D2D6DB"/>
<path d="M102.992 78.6041C103.026 78.6553 95.0504 84.048 85.18 90.6474C75.3058 97.2494 67.2764 102.559 67.2423 102.507C67.2082 102.456 75.1825 97.0648 85.0563 90.4628C94.9271 83.8634 102.958 78.5534 102.992 78.6041Z" fill="#D2D6DB"/>
<path d="M106.52 83.8773C106.554 83.9285 98.5777 89.3212 88.7073 95.9206C78.8331 102.523 70.8038 107.832 70.7696 107.781C70.7355 107.73 78.7099 102.338 88.5836 95.736C98.4544 89.1361 106.486 83.8262 106.52 83.8773Z" fill="#D2D6DB"/>
<path d="M110.048 89.1503C110.083 89.2014 102.107 94.5937 92.2361 101.194C82.3619 107.796 74.3326 113.105 74.2984 113.054C74.2643 113.002 82.2387 107.611 92.1124 101.009C101.983 94.4095 110.014 89.0995 110.048 89.1503Z" fill="#D2D6DB"/>
<path d="M189.796 54.9707L145.939 31.5234L111.402 96.0788L155.259 119.526L189.796 54.9707Z" fill="#F9FAFB"/>
<path d="M147.752 99.3333L144.97 100.286L137.907 80.7678L140.69 79.8152L147.752 99.3333Z" fill="#D2D6DB"/>
<path d="M152.018 85.3308L153.032 88.1318L133.641 94.7705L132.627 91.9695L152.018 85.3308Z" fill="#D2D6DB"/>
<path d="M165.796 56.5333C165.761 56.5977 161.313 54.2862 155.862 51.3717C150.408 48.456 146.016 46.0413 146.051 45.9769C146.086 45.9129 150.533 48.2236 155.986 51.1389C161.438 54.0538 165.831 56.4694 165.796 56.5333Z" fill="#D2D6DB"/>
<path d="M176.32 68.1459C176.285 68.2103 168.923 64.3411 159.879 59.5057C150.831 54.6682 143.526 50.6963 143.561 50.6319C143.595 50.5679 150.955 54.4358 160.003 59.2734C169.048 64.1088 176.354 68.0815 176.32 68.1459Z" fill="#D2D6DB"/>
<path d="M173.735 72.9779C173.7 73.0423 166.338 69.1731 157.294 64.3373C148.246 59.4998 140.941 55.5278 140.976 55.4634C141.01 55.3995 148.37 59.2674 157.418 64.1049C166.463 68.9403 173.769 72.9135 173.735 72.9779Z" fill="#D2D6DB"/>
<path d="M171.15 77.8095C171.116 77.8738 163.754 74.0047 154.709 69.1688C145.661 64.3317 138.357 60.3594 138.391 60.295C138.425 60.2306 145.786 64.0989 154.834 68.9364C163.878 73.7723 171.185 77.7455 171.15 77.8095Z" fill="#D2D6DB"/>
<path d="M168.564 82.6415C168.53 82.7059 161.168 78.8367 152.123 74.0009C143.075 69.1637 135.771 65.1914 135.805 65.127C135.84 65.063 143.2 68.9309 152.248 73.7685C161.293 78.6043 168.598 82.5775 168.564 82.6415Z" fill="#D2D6DB"/>
<path opacity="0.2" d="M168.795 0.251221H167.693V19.0057H168.795V0.251221Z" fill="#161616"/>
<path d="M142.554 41.6928H193.936C193.936 41.6928 189.192 18.9941 167.856 18.9941C148.877 18.9937 142.554 41.6928 142.554 41.6928Z" fill="#49B6FF"/>
<path d="M168.796 0.251221H167.694V19.0057H168.796V0.251221Z" fill="#49B6FF"/>
<path d="M282.647 187.794C282.647 187.856 227.515 187.905 159.522 187.905C91.5058 187.905 36.3857 187.855 36.3857 187.794C36.3857 187.733 91.5058 187.684 159.522 187.684C227.515 187.684 282.647 187.733 282.647 187.794Z" fill="#161616"/>
<path d="M50.0153 161.09C51.4575 161.141 52.8114 161.924 53.7626 163.009C54.7138 164.093 55.2969 165.458 55.6701 166.851C56.3918 169.548 55.9482 172.73 55.1791 175.413C52.259 174.369 50.4585 171.257 49.6442 169.62C48.3569 167.033 47.6023 161.577 50.0153 161.09Z" fill="#49B6FF"/>
<path d="M59.381 178.681C58.4597 177.359 58.4379 175.52 59.1665 174.082C59.8946 172.644 61.2941 171.607 62.8352 171.134C63.548 170.915 64.3746 170.823 64.9944 171.237C65.5741 171.624 65.8245 172.383 65.7494 173.076C65.6748 173.768 65.3237 174.402 64.9095 174.963C63.4896 176.884 61.7625 178.483 59.381 178.681Z" fill="#49B6FF"/>
<path d="M59.7024 187.691C59.6884 187.693 59.644 187.493 59.5719 187.13C59.4939 186.73 59.3928 186.214 59.2716 185.594C59.0413 184.302 58.6757 182.464 58.9521 180.433C59.2179 178.41 60.0232 176.682 60.8673 175.649C61.2828 175.127 61.6808 174.757 61.9751 174.53C62.1176 174.41 62.243 174.337 62.3227 174.281C62.4042 174.227 62.449 174.202 62.4533 174.207C62.4852 174.244 61.7708 174.684 60.9812 175.736C60.1815 176.772 59.4149 178.471 59.153 180.46C58.8809 182.45 59.2179 184.27 59.4128 185.569C59.5173 186.222 59.6013 186.75 59.65 187.117C59.6982 187.485 59.7161 187.689 59.7024 187.691Z" fill="#161616"/>
<path d="M50.957 165.194C50.9634 165.191 51.0039 165.268 51.0747 165.415C51.1523 165.583 51.2521 165.799 51.3754 166.065C51.6335 166.631 51.996 167.454 52.4358 168.476C53.3158 170.518 54.4914 173.356 55.719 176.519C56.9461 179.684 57.992 182.573 58.7193 184.674C59.0836 185.724 59.3707 186.577 59.5618 187.169C59.6505 187.449 59.7221 187.675 59.7776 187.851C59.8249 188.008 59.8463 188.091 59.8399 188.094C59.833 188.096 59.7989 188.017 59.7392 187.865C59.6744 187.691 59.5908 187.469 59.4875 187.194C59.2657 186.587 58.9595 185.748 58.5845 184.722C57.8227 182.634 56.7563 179.754 55.53 176.592C54.3032 173.431 53.149 170.586 52.3036 168.531C51.8881 167.52 51.5486 166.695 51.3025 166.096C51.1933 165.824 51.105 165.603 51.0363 165.431C50.9783 165.279 50.9506 165.197 50.957 165.194Z" fill="#161616"/>
<path d="M56.236 181.729C54.514 178.801 51.2987 176.803 47.9089 176.558C47.0456 176.495 46.0074 176.64 45.6226 177.415C45.237 178.191 45.7527 179.11 46.3409 179.747C48.7876 182.396 52.9268 183.32 56.2684 181.962" fill="#49B6FF"/>
<path d="M49.2237 178.867C49.2245 178.853 49.4165 178.861 49.7641 178.887C49.9381 178.899 50.151 178.915 50.3945 178.96C50.6377 179.006 50.9205 179.032 51.2216 179.116C51.5249 179.19 51.8593 179.264 52.2057 179.389C52.5588 179.494 52.9214 179.645 53.3023 179.806C54.0548 180.147 54.8528 180.594 55.6129 181.176C56.3675 181.764 57.0048 182.421 57.523 183.065C57.7721 183.395 58.0102 183.708 58.1957 184.026C58.4009 184.332 58.5532 184.64 58.696 184.917C58.8492 185.189 58.9396 185.459 59.0398 185.685C59.1409 185.912 59.2041 186.115 59.2544 186.283C59.3581 186.616 59.4084 186.801 59.3952 186.804C59.3521 186.819 59.1444 186.074 58.5694 184.982C58.4201 184.713 58.2627 184.414 58.0545 184.117C57.866 183.807 57.6263 183.503 57.3776 183.181C56.8597 182.554 56.2306 181.913 55.4897 181.336C54.7432 180.765 53.9622 180.321 53.2255 179.976C52.8527 179.813 52.4978 179.658 52.1519 179.548C51.8132 179.419 51.4848 179.338 51.1875 179.255C49.991 178.952 49.219 178.911 49.2237 178.867Z" fill="#161616"/>
<path d="M127.08 100.261L111.996 177.781L110.022 187.929L210.715 187.432C215.234 187.41 219.238 183.399 220.692 177.439L238.547 104.253C239.651 99.7286 237.229 95.0233 233.799 95.0271L131.886 95.1341C129.636 95.1371 127.669 97.2359 127.08 100.261Z" fill="#4f7cff"/>
<g opacity="0.5">
<path d="M127.08 100.261L111.996 177.781L110.022 187.929L210.715 187.432C215.234 187.41 219.238 183.399 220.692 177.439L238.547 104.253C239.651 99.7286 237.229 95.0233 233.799 95.0271L131.886 95.1341C129.636 95.1371 127.669 97.2359 127.08 100.261Z" fill="#161616"/>
</g>
<path d="M201.057 172.529L190.395 86.6479C189.959 83.1288 187.154 80.5038 183.844 80.5149L160.466 80.5913C158.736 80.5968 157.077 81.3323 155.848 82.6384L144.747 94.4348L79.7296 94.7738C75.7562 94.7947 72.7039 98.5526 73.2306 102.775L83.1292 182.151C83.5672 185.665 86.3662 188.287 89.6724 188.28L202.984 188.056C215.604 188.318 216.809 184.592 216.809 184.592C202.346 187.796 201.058 172.538 201.057 172.529Z" fill="#4f7cff"/>
<path d="M235.817 42.8842L195.623 69.7617L235.212 128.927L275.407 102.049L235.817 42.8842Z" fill="#F9FAFB"/>
<path d="M254.637 99.2562L254.181 102.078L234.199 99.2004L234.656 96.3784L254.637 99.2562Z" fill="#D2D6DB"/>
<path d="M244.574 89.1885L247.441 89.6017L244.262 109.268L241.395 108.855L244.574 89.1885Z" fill="#D2D6DB"/>
<path d="M226.17 64.1924C226.204 64.2435 222.18 66.9934 217.184 70.3343C212.185 73.676 208.108 76.3431 208.073 76.292C208.039 76.2408 212.062 73.4913 217.06 70.1496C222.057 66.8092 226.136 64.1416 226.17 64.1924Z" fill="#D2D6DB"/>
<path d="M240.951 60.4833C240.985 60.5345 234.291 65.0697 226.002 70.6125C217.709 76.157 210.962 80.6091 210.927 80.5579C210.893 80.5068 217.586 75.9724 225.878 70.4279C234.168 64.8855 240.917 60.4326 240.951 60.4833Z" fill="#D2D6DB"/>
<path d="M243.914 64.9118C243.948 64.963 237.255 69.4986 228.965 75.041C220.672 80.5855 213.925 85.0376 213.891 84.9864C213.857 84.9352 220.549 80.4009 228.842 74.8564C237.131 69.3136 243.88 64.8606 243.914 64.9118Z" fill="#D2D6DB"/>
<path d="M246.878 69.34C246.912 69.3912 240.218 73.9264 231.928 79.4692C223.636 85.0137 216.888 89.4658 216.854 89.4146C216.82 89.3639 223.513 84.8291 231.805 79.2846C240.094 73.7422 246.844 69.2893 246.878 69.34Z" fill="#D2D6DB"/>
<path d="M249.841 73.7687C249.875 73.8199 243.181 78.3551 234.892 83.8979C226.599 89.4424 219.852 93.8945 219.818 93.8433C219.783 93.7926 226.476 89.2578 234.768 83.7133C243.058 78.1709 249.807 73.7176 249.841 73.7687Z" fill="#D2D6DB"/>
<path d="M217.236 44.5055C216.964 44.3887 216.768 44.1239 216.754 43.8079L216.584 39.8492C216.572 39.6002 216.679 39.3606 216.871 39.2019C217.063 39.0429 217.319 38.9836 217.561 39.0408C218.198 39.1908 218.9 39.0523 219.487 38.6604C220.028 38.2997 220.391 37.7684 220.483 37.2025C220.575 36.6388 220.4 36.015 220.004 35.4905C219.58 34.929 218.953 34.5507 218.323 34.4787C217.039 34.3307 215.652 35.3144 215.295 36.6269C215.18 37.0507 214.743 37.3015 214.319 37.1859C213.887 37.0674 213.644 36.6333 213.759 36.2094C214.319 34.1465 216.449 32.6609 218.506 32.8976C219.572 33.0204 220.582 33.6156 221.273 34.5307C221.931 35.4006 222.215 36.4674 222.054 37.4584C221.891 38.4583 221.277 39.3785 220.37 39.9835C219.715 40.4206 218.964 40.6619 218.212 40.6879L218.344 43.7393C218.363 44.1785 218.022 44.5494 217.583 44.5682C217.46 44.5738 217.342 44.5507 217.236 44.5055Z" fill="#49B6FF"/>
<path d="M218.403 46.1223C218.428 46.4809 218.157 46.7917 217.798 46.816C217.439 46.8407 217.128 46.57 217.104 46.2114C217.079 45.8528 217.35 45.5419 217.708 45.5172C218.067 45.4925 218.378 45.7637 218.403 46.1223Z" fill="#49B6FF"/>
<path d="M203.529 38.9233C203.534 38.9233 203.547 38.8355 203.567 38.6637C203.587 38.4782 203.615 38.2257 203.651 37.9012C203.67 37.564 203.756 37.1563 203.857 36.6758C203.913 36.437 203.942 36.1713 204.03 35.9027C204.113 35.6324 204.201 35.3454 204.294 35.0418C204.707 33.8445 205.344 32.4083 206.416 30.9799C207.479 29.5544 208.975 28.146 210.895 27.0792C211.841 26.5155 212.922 26.1227 214.056 25.7761C215.207 25.5036 216.428 25.2699 217.702 25.3002C218.34 25.2661 218.983 25.3595 219.638 25.4145C219.965 25.4456 220.287 25.533 220.616 25.5902C220.945 25.6507 221.276 25.7151 221.598 25.8268C222.914 26.1645 224.194 26.7854 225.413 27.555C227.86 29.0939 229.921 31.5977 231.051 34.6329C231.618 36.1513 231.889 37.816 231.887 39.4973C231.921 41.182 231.594 42.8931 230.995 44.5041L230.802 44.991L230.777 45.0554L230.803 45.1156C231.873 47.5789 232.922 49.9949 233.939 52.3358L234.118 52.132C231.916 51.286 229.779 50.4656 227.73 49.6785L227.651 49.6482L227.589 49.7083C225.817 51.425 223.7 52.5853 221.557 53.1899C219.407 53.7958 217.242 53.8269 215.273 53.4769C213.299 53.1276 211.522 52.3729 210.04 51.4028C208.554 50.4328 207.362 49.2534 206.444 48.0547C205.532 46.8429 204.931 45.6004 204.477 44.4904C204.078 43.3562 203.833 42.3495 203.715 41.5163C203.664 41.1001 203.62 40.73 203.581 40.4072C203.572 40.0883 203.565 39.8171 203.559 39.5924C203.553 39.383 203.547 39.2176 203.543 39.093C203.538 38.9809 203.533 38.9233 203.529 38.9233C203.525 38.9233 203.521 38.9801 203.518 39.0926C203.517 39.2176 203.515 39.3826 203.512 39.5932C203.512 39.8188 203.511 40.0921 203.511 40.4128C203.544 40.7381 203.581 41.1112 203.624 41.5308C203.729 42.3721 203.962 43.3912 204.353 44.542C204.798 45.6682 205.395 46.9316 206.308 48.1665C207.229 49.3881 208.429 50.5923 209.931 51.5858C211.428 52.5793 213.229 53.3558 215.232 53.7199C217.231 54.0841 219.433 54.0615 221.622 53.4517C223.805 52.8437 225.965 51.6672 227.775 49.9207L227.634 49.9505C229.683 50.7406 231.817 51.5645 234.019 52.4138L234.341 52.5379L234.199 52.21C233.183 49.8682 232.136 47.4518 231.067 44.9881L231.068 45.1121L231.265 44.6145C231.878 42.9682 232.21 41.2178 232.176 39.496C232.177 37.7776 231.897 36.0758 231.316 34.525C230.158 31.4246 228.05 28.8769 225.554 27.3154C224.31 26.5342 223.005 25.9074 221.665 25.5671C221.337 25.455 221 25.3906 220.666 25.3301C220.331 25.2729 220.003 25.1855 219.671 25.1548C219.005 25.1015 218.351 25.0098 217.703 25.0469C216.407 25.0222 215.168 25.2644 214.001 25.548C212.851 25.9057 211.756 26.3112 210.8 26.8886C208.858 27.9831 207.353 29.4222 206.288 30.875C205.216 32.3303 204.588 33.7899 204.188 35.0034C204.099 35.3109 204.014 35.6021 203.934 35.8754C203.85 36.1475 203.825 36.4157 203.773 36.657C203.681 37.1431 203.603 37.5542 203.593 37.894C203.57 38.2202 203.551 38.4752 203.538 38.6615C203.527 38.8346 203.524 38.9229 203.529 38.9233Z" fill="#161616"/>
<path d="M250.52 160.394C250.688 156.268 250.62 152.134 250.35 148.014C249.792 139.515 248.393 131.083 246.471 122.79C245.389 118.123 244.056 113.534 242.668 108.95C242.626 108.812 242.406 108.851 242.444 108.995C246.737 125.154 250.259 141.83 250.016 158.626C249.949 163.328 249.404 167.945 248.958 172.616C248.946 172.741 249.151 172.791 249.18 172.662C250.066 168.665 250.353 164.477 250.52 160.394Z" fill="#4f7cff"/>
<path d="M242.444 108.995C242.444 108.995 235.941 125.496 237.397 129.375C238.853 133.253 241.854 134.081 241.854 134.081C241.854 134.081 237.876 139.759 240.656 145.086C243.436 150.412 249.614 150.16 250.025 156.199C250.025 156.199 250.369 130.948 242.444 108.995Z" fill="#4f7cff"/>
<path d="M249.318 145.772C249.326 145.745 249.324 145.715 249.311 145.686C248.398 134.466 246.407 123.281 243.003 112.492C242.994 112.46 242.941 112.47 242.95 112.503C244.238 117.33 245.385 122.183 246.365 127.062C245.52 126.193 244.415 125.693 243.26 125.332C243.238 125.325 243.228 125.356 243.248 125.365C244.451 125.885 245.603 126.488 246.453 127.506C246.643 128.463 246.829 129.42 247.006 130.378C245.552 128.754 243.537 127.948 241.52 127.183C241.492 127.172 241.477 127.215 241.504 127.227C243.605 128.082 245.697 129.183 247.12 130.993C247.616 133.731 248.05 136.479 248.426 139.235C247.364 138.126 246.052 137.38 244.548 137.014C244.503 137.003 244.478 137.07 244.524 137.083C246.069 137.528 247.398 138.392 248.456 139.601C248.464 139.61 248.472 139.614 248.481 139.62C248.611 140.589 248.734 141.56 248.849 142.532C248.031 141.835 247.126 141.304 246.131 140.893C246.104 140.883 246.09 140.923 246.116 140.935C247.127 141.365 248.037 141.985 248.838 142.736C248.85 142.746 248.861 142.745 248.873 142.749C248.981 143.673 249.089 144.598 249.182 145.524C247.692 143.728 245.848 142.428 243.667 141.587C243.624 141.57 243.602 141.636 243.643 141.653C245.764 142.575 247.634 144.036 249.079 145.835C249.119 145.884 249.17 145.892 249.216 145.878C249.357 147.298 249.483 148.72 249.587 150.145C249.588 150.164 249.62 150.166 249.619 150.147C249.538 148.688 249.436 147.23 249.318 145.772Z" fill="white"/>
<path d="M244.092 123.692C242.964 122.917 241.531 122.586 240.185 122.474C240.153 122.471 240.15 122.519 240.182 122.523C241.582 122.732 242.758 123.238 244.045 123.785C244.101 123.809 244.141 123.725 244.092 123.692Z" fill="white"/>
<path d="M244.882 141.162C243.99 140.626 242.972 140.324 241.949 140.159C241.914 140.154 241.911 140.209 241.946 140.215C242.984 140.403 243.903 140.772 244.847 141.231C244.887 141.252 244.92 141.185 244.882 141.162Z" fill="white"/>
<path d="M267.617 129.644C264.905 131.55 262.302 133.748 260.09 136.221C257.732 138.857 256.012 141.85 254.811 145.171C252.35 151.974 251.001 159.344 250.878 166.574C250.809 170.628 251.17 174.65 252.038 178.611C252.069 178.755 252.285 178.714 252.263 178.569C251.203 171.599 251.241 164.486 252.381 157.529C253.499 150.702 255.253 143.276 259.594 137.728C261.957 134.708 264.904 132.331 267.818 129.875C267.97 129.746 267.774 129.533 267.617 129.644Z" fill="#4f7cff"/>
<path d="M251.835 161.659C251.835 161.659 254.069 157.899 257.322 154.648C260.575 151.397 263.316 149.086 263.738 146.935C264.161 144.785 260.479 143.201 260.479 143.201C260.479 143.201 264.982 144.01 266.214 142.121C267.445 140.232 268.04 129.292 268.04 129.292C268.04 129.292 259.85 135.138 256.034 143.332C252.218 151.526 251.835 161.659 251.835 161.659Z" fill="#4f7cff"/>
<path d="M265.206 132.097C261.76 135.481 258.291 139.086 256.262 143.531C255.566 145.055 254.974 146.636 254.453 148.246C254.452 148.249 254.452 148.251 254.45 148.253C254.346 148.577 254.24 148.899 254.141 149.225C254.131 149.241 254.126 149.259 254.125 149.278C253.121 152.598 252.412 156.031 251.798 159.385C251.794 159.406 251.827 159.418 251.831 159.395C252.184 157.688 252.573 155.965 253.008 154.247C253.023 154.247 253.04 154.244 253.057 154.237C253.753 153.944 254.454 153.761 255.206 153.691C255.255 153.687 255.251 153.602 255.202 153.604C254.476 153.639 253.765 153.766 253.076 153.992C253.472 152.442 253.904 150.897 254.389 149.374C255.97 148.987 257.62 148.778 259.246 148.74C259.263 148.739 259.266 148.714 259.248 148.713C257.609 148.637 256.068 148.778 254.472 149.119C254.556 148.857 254.644 148.598 254.731 148.337C255.799 148.094 256.871 147.889 257.964 147.79C257.983 147.788 257.982 147.754 257.962 147.755C256.892 147.784 255.838 147.896 254.797 148.139C255.243 146.821 255.724 145.522 256.259 144.256C256.7 143.208 257.226 142.214 257.805 141.254C258.68 141.056 259.529 140.867 260.427 140.787C260.452 140.785 260.449 140.745 260.425 140.743C259.61 140.69 258.762 140.751 257.973 140.985C258.404 140.29 258.857 139.609 259.341 138.949C261.178 138.542 263.04 138.164 264.919 138.517C264.951 138.523 264.963 138.468 264.931 138.46C263.143 137.99 261.367 138.262 259.588 138.613C259.782 138.355 259.981 138.1 260.181 137.846C261.308 137.498 262.43 137.329 263.613 137.307C263.637 137.307 263.641 137.272 263.616 137.269C262.536 137.166 261.459 137.271 260.416 137.553C261.935 135.667 263.612 133.896 265.27 132.144C265.347 132.064 265.288 132.017 265.206 132.097Z" fill="white"/>
<path d="M265.114 139.554C264.575 139.497 264.027 139.436 263.486 139.497C263.42 139.505 263.425 139.612 263.491 139.613C264.031 139.629 264.57 139.589 265.109 139.618C265.15 139.621 265.155 139.558 265.114 139.554Z" fill="white"/>
<path d="M259.219 150.166C258.359 150.156 257.499 150.387 256.695 150.673C256.675 150.68 256.686 150.714 256.707 150.709C257.541 150.51 258.384 150.43 259.226 150.291C259.295 150.28 259.292 150.167 259.219 150.166Z" fill="white"/>
<path d="M257.452 146.5C257.103 146.482 256.725 146.543 256.381 146.597C256.345 146.602 256.348 146.66 256.384 146.661C256.732 146.667 257.115 146.676 257.458 146.61C257.519 146.598 257.516 146.503 257.452 146.5Z" fill="white"/>
<path d="M227.826 141.253C230.461 142.169 233.076 143.347 235.438 144.837C237.956 146.426 240.039 148.45 241.779 150.86C245.344 155.797 248.139 161.45 249.911 167.273C250.904 170.537 251.542 173.875 251.755 177.282C251.763 177.405 251.579 177.422 251.564 177.299C250.81 171.413 249.134 165.666 246.603 160.299C244.12 155.033 240.983 149.428 236.188 145.941C233.576 144.043 230.642 142.8 227.716 141.486C227.563 141.417 227.672 141.2 227.826 141.253Z" fill="#4f7cff"/>
<path d="M248 163.516C248 163.516 245.322 160.989 241.938 159.11C238.554 157.23 235.802 155.993 234.962 154.351C234.123 152.708 236.736 150.576 236.736 150.576C236.736 150.576 233.28 152.27 231.846 151.026C230.412 149.782 227.402 141.066 227.402 141.066C227.402 141.066 235.382 143.905 240.364 149.654C245.347 155.404 248 163.516 248 163.516Z" fill="#4f7cff"/>
<path d="M247.584 161.718C243.593 154.23 238.267 147.455 230.97 142.983C230.967 142.981 230.964 142.986 230.967 142.988C232.888 144.212 234.658 145.623 236.308 147.166C234.831 147.125 233.327 147.361 232.018 148.071C231.989 148.087 232.009 148.126 232.039 148.116C233.499 147.622 234.901 147.298 236.454 147.37C236.475 147.371 236.489 147.36 236.504 147.352C236.763 147.597 237.018 147.847 237.271 148.098C236.503 148.131 235.726 148.24 234.978 148.402C234.958 148.407 234.964 148.438 234.984 148.434C235.794 148.277 236.584 148.223 237.406 148.234C238.743 149.577 239.989 151.014 241.17 152.506C240.636 152.429 240.078 152.474 239.567 152.623C239.529 152.634 239.539 152.689 239.578 152.683C240.16 152.61 240.712 152.619 241.289 152.66C241.508 152.938 241.729 153.214 241.943 153.496C240.302 153.397 238.694 153.555 237.1 153.966C237.076 153.972 237.083 154.009 237.107 154.004C238.752 153.681 240.41 153.578 242.082 153.681C242.285 153.951 242.478 154.228 242.677 154.501C241.699 154.471 240.749 154.594 239.794 154.831C239.758 154.84 239.768 154.897 239.806 154.889C240.787 154.665 241.786 154.609 242.79 154.656C243.648 155.839 244.471 157.048 245.261 158.271C244.843 158.185 244.403 158.232 243.996 158.347C243.974 158.353 243.98 158.384 244.002 158.381C244.472 158.326 244.91 158.387 245.372 158.446C246.082 159.552 246.769 160.669 247.428 161.793C247.484 161.889 247.637 161.818 247.584 161.718Z" fill="white"/>
<path d="M241.375 155.507C240.595 155.44 239.802 155.562 239.057 155.79C239.036 155.797 239.041 155.829 239.064 155.825C239.831 155.684 240.592 155.63 241.369 155.589C241.42 155.586 241.43 155.512 241.375 155.507Z" fill="white"/>
<path d="M234.415 146.38C234.062 146.34 233.694 146.386 233.345 146.443C233.304 146.449 233.317 146.51 233.358 146.506C233.709 146.469 234.056 146.482 234.408 146.471C234.465 146.469 234.474 146.387 234.415 146.38Z" fill="white"/>
<path d="M258.292 188.28H240.279L242.848 169.473L243.504 164.65H255.067L255.723 169.473L258.292 188.28Z" fill="#49B6FF"/>
<path d="M255.723 169.473H242.848L243.504 164.65H255.067L255.723 169.473Z" fill="#49B6FF"/>
<path d="M256.72 162.978H241.85V167.062H256.72V162.978Z" fill="#49B6FF"/>
<path d="M71.1739 46.528L66.3599 44.3457L65.6923 45.8193C65.4961 46.2526 65.0708 46.5293 64.5952 46.5502C64.3325 46.5617 64.0697 46.5877 63.8082 46.6274C63.339 46.699 62.869 46.5101 62.5926 46.1247L61.6503 44.8096L57.352 47.8883L58.2942 49.2028C58.5706 49.5887 58.5984 50.094 58.38 50.5153C58.258 50.7498 58.1492 50.9903 58.0536 51.2355C57.8809 51.679 57.4821 51.9924 57.0086 52.0388L55.3979 52.1966L55.9171 57.455L57.5333 57.2943C58.0072 57.2469 58.4555 57.4827 58.7127 57.8835C58.7826 57.9923 58.8556 58.0997 58.9311 58.2055C59.007 58.3112 59.085 58.4148 59.1657 58.5159C59.4608 58.8864 59.5402 59.3841 59.3448 59.8156L58.6726 61.2999L63.4866 63.4822L64.1572 62.0056C64.3538 61.5724 64.7799 61.296 65.2555 61.2756C65.5174 61.2645 65.7789 61.2389 66.0395 61.1997C66.5083 61.1289 66.9775 61.3174 67.2539 61.7028L68.1966 63.0183L72.4949 59.9397L71.5522 58.6242C71.2763 58.2387 71.2481 57.7339 71.4661 57.313C71.5872 57.0794 71.6951 56.8397 71.7898 56.5954C71.9622 56.1519 72.3606 55.8377 72.8345 55.7908L74.4485 55.6309L73.9294 50.3725L72.3145 50.5319C71.8423 50.5784 71.3953 50.3435 71.1389 49.9439C71.0685 49.8348 70.9952 49.7265 70.9188 49.6194C70.8429 49.5137 70.7648 49.4101 70.6842 49.309C70.3873 48.9368 70.308 48.4366 70.5046 48.003L71.1739 46.528ZM68.4431 51.3929C69.8358 53.336 69.3892 56.0372 67.4459 57.4294C65.5021 58.8216 62.7965 58.3777 61.4038 56.4346C60.0111 54.4915 60.4585 51.7843 62.4023 50.3921C64.3457 49.0003 67.0504 49.4502 68.4431 51.3929Z" fill="#D2D6DB"/>
<path d="M80.9086 30.772L77.9672 33.0205L78.656 33.9202C78.8586 34.185 78.8885 34.5389 78.7443 34.8391C78.6641 35.0049 78.5933 35.1755 78.5315 35.3503C78.4206 35.6633 78.148 35.891 77.8183 35.9341L76.6943 36.0803L77.1725 39.7525L78.2965 39.6062C78.6262 39.5632 78.9478 39.7137 79.1351 39.9879C79.2396 40.141 79.3517 40.2876 79.4716 40.4275C79.6883 40.6808 79.7497 41.0309 79.6217 41.3383L79.1862 42.3847L82.6055 43.8055L83.041 42.7548C83.1689 42.4469 83.4628 42.2482 83.7955 42.2218C83.886 42.2145 83.9764 42.2052 84.0668 42.1937C84.1573 42.1817 84.2473 42.1681 84.336 42.1514C84.6627 42.0917 84.9963 42.2077 85.198 42.4712L85.892 43.3778L88.8339 41.1294L88.1442 40.2267C87.9416 39.9619 87.9122 39.6075 88.0572 39.3073C88.137 39.1419 88.2078 38.9722 88.2696 38.7982C88.3809 38.4857 88.6531 38.2584 88.9824 38.2153L90.1068 38.0691L89.6286 34.3969L88.5042 34.5431C88.1749 34.5862 87.8537 34.4361 87.6661 34.1619C87.562 34.0097 87.4498 33.8639 87.3304 33.7245C87.1132 33.4712 87.051 33.1211 87.1789 32.8132L87.6149 31.7643L84.1952 30.3435L83.7589 31.3929C83.6313 31.6999 83.3378 31.8977 83.0064 31.9238C82.916 31.931 82.8247 31.9404 82.733 31.9523C82.6426 31.9643 82.5526 31.9779 82.4634 31.9941C82.135 32.0542 81.8001 31.9374 81.5971 31.6722L80.9086 30.772ZM83.009 34.0681C84.67 33.8519 86.1906 35.022 86.4069 36.6824C86.6231 38.3428 85.4531 39.8659 83.7921 40.0821C82.1311 40.2983 80.6071 39.1257 80.3908 37.4653C80.1746 35.8049 81.348 34.2843 83.009 34.0681Z" fill="#D2D6DB"/>
<path d="M272.915 140.587L269.973 142.836L270.662 143.736C270.865 144 270.894 144.354 270.75 144.654C270.67 144.82 270.599 144.991 270.537 145.166C270.426 145.479 270.154 145.706 269.824 145.749L268.7 145.896L269.178 149.568L270.302 149.422C270.632 149.379 270.954 149.529 271.141 149.803C271.245 149.956 271.358 150.103 271.477 150.243C271.694 150.496 271.756 150.846 271.628 151.154L271.192 152.2L274.611 153.621L275.047 152.57C275.175 152.262 275.469 152.064 275.801 152.037C275.892 152.03 275.982 152.021 276.073 152.009C276.163 151.997 276.253 151.983 276.342 151.967C276.669 151.907 277.002 152.023 277.204 152.287L277.898 153.193L280.84 150.945L280.15 150.042C279.947 149.777 279.918 149.423 280.063 149.123C280.143 148.957 280.214 148.788 280.275 148.614C280.387 148.301 280.659 148.074 280.988 148.031L282.113 147.884L281.634 144.212L280.51 144.359C280.181 144.402 279.86 144.252 279.672 143.977C279.568 143.825 279.456 143.679 279.336 143.54C279.119 143.287 279.057 142.937 279.185 142.629L279.621 141.58L276.201 140.159L275.765 141.208C275.637 141.515 275.344 141.713 275.012 141.739C274.922 141.746 274.831 141.756 274.739 141.768C274.648 141.78 274.558 141.793 274.469 141.81C274.141 141.87 273.806 141.753 273.603 141.488L272.915 140.587ZM275.015 143.884C276.676 143.667 278.196 144.837 278.413 146.498C278.629 148.158 277.459 149.681 275.798 149.898C274.137 150.114 272.613 148.941 272.397 147.281C272.18 145.62 273.354 144.1 275.015 143.884Z" fill="#D2D6DB"/>
</g>
<defs>
<clipPath id="clip0_538_25803">
<rect width="320" height="188" fill="white"/>
</clipPath>
</defs>
</svg>
