<svg width="352" height="52" viewBox="0 0 352 52" fill="none" xmlns="http://www.w3.org/2000/svg">
<g opacity="0.51">
<path d="M-36.1283 9.96107L-51.7248 26.3705C-51.9015 26.5564 -52 26.803 -52 27.0594V61C-52 61.5523 -51.5523 62 -51 62H396C396.552 62 397 61.5523 397 61V13.0394C397 12.0158 395.644 11.6533 395.133 12.5403L387.569 25.6719C387.268 26.1954 386.574 26.334 386.095 25.9666L370.568 14.0751C370.228 13.8149 369.761 13.7998 369.405 14.0374L351.364 26.0833C350.892 26.3982 350.253 26.2584 349.956 25.7752L343.224 14.8179C342.867 14.2375 342.047 14.1757 341.608 14.696L332.581 25.3809C332.092 25.9589 331.164 25.8061 330.886 25.102L322.273 3.23213C321.905 2.29829 320.545 2.4278 320.36 3.41425L316.35 24.795C316.201 25.5857 315.228 25.8865 314.659 25.3172L303.811 14.4518C303.382 14.0226 302.673 14.0707 302.306 14.5538L288.017 33.38C287.558 33.9842 286.62 33.8779 286.309 33.1863L278.624 16.1349C278.241 15.2849 277.006 15.3753 276.751 16.272L271.952 33.1322C271.746 33.8547 270.847 34.101 270.302 33.5841L263.42 27.0584C263.16 26.812 262.788 26.7233 262.445 26.826L249.196 30.7916C248.781 30.9159 248.333 30.7587 248.087 30.4022L236.563 13.7315C236.521 13.6707 236.486 13.6054 236.458 13.5368L231.593 1.47095C231.318 0.788759 230.425 0.627002 229.928 1.16929L218.574 13.5589C218.525 13.6128 218.482 13.672 218.445 13.7354L211.417 25.9355C211.176 26.3548 210.669 26.541 210.213 26.3775L192.264 19.9349C192.091 19.8728 191.939 19.7644 191.824 19.6214L184.293 10.2829C183.888 9.78092 183.121 9.78771 182.725 10.2968L170.531 25.9769C170.226 26.3691 169.68 26.4779 169.248 26.2324L159.034 20.4277C158.494 20.1209 157.808 20.3752 157.599 20.9597L154.29 30.1897C154.123 30.6555 153.641 30.9292 153.156 30.8334L132.444 26.7475C132.162 26.6919 131.869 26.7603 131.641 26.9354L122.611 33.8673C122.066 34.2852 121.273 34.0431 121.054 33.3926L117.235 22.0285C116.957 21.1986 115.821 21.1024 115.407 21.8735L109.629 32.6194C109.209 33.4004 108.056 33.2891 107.793 32.4421L106.315 27.6743C106.144 27.1243 105.545 26.8316 105.006 27.035L95.4059 30.6581C94.9009 30.8487 94.3358 30.6042 94.1291 30.1056L86.2569 11.1249C85.9429 10.3679 84.9017 10.2893 84.4775 10.9905L75.7525 25.4159C75.3896 26.0159 74.5379 26.0658 74.1074 25.5122L62.4184 10.4809C61.981 9.91848 61.1124 9.98088 60.7599 10.6001L56.4957 18.0909C56.0869 18.8091 55.0329 18.7496 54.7074 17.99L47.8686 2.02738C47.5301 1.23737 46.4186 1.21414 46.0475 1.98931L38.0701 18.6494C37.7839 19.2471 37.0061 19.4062 36.5082 18.9689L26.1644 9.88355C25.785 9.55032 25.2167 9.55222 24.8395 9.88799L6.59786 26.1277C6.24837 26.4389 5.72986 26.4661 5.34975 26.1932L-2.93153 20.2481C-3.27287 20.0031 -3.731 19.9975 -4.07814 20.2343L-12.8935 26.2463C-13.2544 26.4925 -13.7334 26.4758 -14.0764 26.2052L-34.784 9.86497C-35.1897 9.54489 -35.7723 9.58654 -36.1283 9.96107Z" fill="url(#paint0_linear_610_5485)" stroke="#4f7cff"/>
<path d="M-36.1283 9.96107L-51.7248 26.3705C-51.9015 26.5564 -52 26.803 -52 27.0594V61C-52 61.5523 -51.5523 62 -51 62H396C396.552 62 397 61.5523 397 61V13.0394C397 12.0158 395.644 11.6533 395.133 12.5403L387.569 25.6719C387.268 26.1954 386.574 26.334 386.095 25.9666L370.568 14.0751C370.228 13.8149 369.761 13.7998 369.405 14.0374L351.364 26.0833C350.892 26.3982 350.253 26.2584 349.956 25.7752L343.224 14.8179C342.867 14.2375 342.047 14.1757 341.608 14.696L332.581 25.3809C332.092 25.9589 331.164 25.8061 330.886 25.102L322.273 3.23213C321.905 2.29829 320.545 2.4278 320.36 3.41425L316.35 24.795C316.201 25.5857 315.228 25.8865 314.659 25.3172L303.811 14.4518C303.382 14.0226 302.673 14.0707 302.306 14.5538L288.017 33.38C287.558 33.9842 286.62 33.8779 286.309 33.1863L278.624 16.1349C278.241 15.2849 277.006 15.3753 276.751 16.272L271.952 33.1322C271.746 33.8547 270.847 34.101 270.302 33.5841L263.42 27.0584C263.16 26.812 262.788 26.7233 262.445 26.826L249.196 30.7916C248.781 30.9159 248.333 30.7587 248.087 30.4022L236.563 13.7315C236.521 13.6707 236.486 13.6054 236.458 13.5368L231.593 1.47095C231.318 0.788759 230.425 0.627002 229.928 1.16929L218.574 13.5589C218.525 13.6128 218.482 13.672 218.445 13.7354L211.417 25.9355C211.176 26.3548 210.669 26.541 210.213 26.3775L192.264 19.9349C192.091 19.8728 191.939 19.7644 191.824 19.6214L184.293 10.2829C183.888 9.78092 183.121 9.78771 182.725 10.2968L170.531 25.9769C170.226 26.3691 169.68 26.4779 169.248 26.2324L159.034 20.4277C158.494 20.1209 157.808 20.3752 157.599 20.9597L154.29 30.1897C154.123 30.6555 153.641 30.9292 153.156 30.8334L132.444 26.7475C132.162 26.6919 131.869 26.7603 131.641 26.9354L122.611 33.8673C122.066 34.2852 121.273 34.0431 121.054 33.3926L117.235 22.0285C116.957 21.1986 115.821 21.1024 115.407 21.8735L109.629 32.6194C109.209 33.4004 108.056 33.2891 107.793 32.4421L106.315 27.6743C106.144 27.1243 105.545 26.8316 105.006 27.035L95.4059 30.6581C94.9009 30.8487 94.3358 30.6042 94.1291 30.1056L86.2569 11.1249C85.9429 10.3679 84.9017 10.2893 84.4775 10.9905L75.7525 25.4159C75.3896 26.0159 74.5379 26.0658 74.1074 25.5122L62.4184 10.4809C61.981 9.91848 61.1124 9.98088 60.7599 10.6001L56.4957 18.0909C56.0869 18.8091 55.0329 18.7496 54.7074 17.99L47.8686 2.02738C47.5301 1.23737 46.4186 1.21414 46.0475 1.98931L38.0701 18.6494C37.7839 19.2471 37.0061 19.4062 36.5082 18.9689L26.1644 9.88355C25.785 9.55032 25.2167 9.55222 24.8395 9.88799L6.59786 26.1277C6.24837 26.4389 5.72986 26.4661 5.34975 26.1932L-2.93153 20.2481C-3.27287 20.0031 -3.731 19.9975 -4.07814 20.2343L-12.8935 26.2463C-13.2544 26.4925 -13.7334 26.4758 -14.0764 26.2052L-34.784 9.86497C-35.1897 9.54489 -35.7723 9.58654 -36.1283 9.96107Z" fill="url(#paint1_linear_610_5485)" stroke="#4f7cff"/>
</g>
<defs>
<linearGradient id="paint0_linear_610_5485" x1="173" y1="163.06" x2="173" y2="0.620005" gradientUnits="userSpaceOnUse">
<stop stop-color="#4f7cff"/>
<stop offset="1" stop-color="#4f7cff" stop-opacity="0"/>
</linearGradient>
<linearGradient id="paint1_linear_610_5485" x1="173" y1="163.06" x2="173" y2="0.620005" gradientUnits="userSpaceOnUse">
<stop stop-color="#4f7cff"/>
<stop offset="1" stop-color="#4f7cff" stop-opacity="0"/>
</linearGradient>
</defs>
</svg>
