<svg width="660" height="928" viewBox="0 0 660 928" fill="none" xmlns="http://www.w3.org/2000/svg">
<path opacity="0.03" d="M195.5 -46.5C528.7 -65.7 724.333 -256.167 780.5 -349L-383 -739L-405 216.5C-343.667 136.833 -137.7 -27.3 195.5 -46.5Z" fill="#05703C"/>
<path opacity="0.03" d="M195.5 43.5C528.7 24.3 724.333 -166.167 780.5 -259L-383 -649L-405 306.5C-343.667 226.833 -137.7 62.7 195.5 43.5Z" fill="#05713D"/>
<path opacity="0.03" d="M195.5 133.5C528.7 114.3 724.333 -76.1667 780.5 -169L-383 -559L-405 396.5C-343.667 316.833 -137.7 152.7 195.5 133.5Z" fill="#089E55"/>
<path opacity="0.03" d="M195.5 223.5C528.7 204.3 724.333 13.8333 780.5 -79L-383 -469L-405 486.5C-343.667 406.833 -137.7 242.7 195.5 223.5Z" fill="#0ACA6D"/>
<path opacity="0.03" d="M195.5 313.5C528.7 294.3 724.333 103.833 780.5 11L-383 -379L-405 576.5C-343.667 496.833 -137.7 332.7 195.5 313.5Z" fill="#4f7cff"/>
<path opacity="0.03" d="M195.5 403.5C528.7 384.3 724.333 193.833 780.5 101L-383 -289L-405 666.5C-343.667 586.833 -137.7 422.7 195.5 403.5Z" fill="#3DF59C"/>
<path opacity="0.03" d="M195.5 493.5C528.7 474.3 724.333 283.833 780.5 191L-383 -199L-405 756.5C-343.667 676.833 -137.7 512.7 195.5 493.5Z" fill="#6AF7B3"/>
<path opacity="0.03" d="M195.5 583.5C528.7 564.3 724.333 373.833 780.5 281L-383 -109L-405 846.5C-343.667 766.833 -137.7 602.7 195.5 583.5Z" fill="#97F9C9"/>
<path opacity="0.03" d="M195.5 673.5C528.7 654.3 724.333 463.833 780.5 371L-383 -19L-405 936.5C-343.667 856.833 -137.7 692.7 195.5 673.5Z" fill="#C3FCE0"/>
<path opacity="0.03" d="M195.5 763.5C528.7 744.3 724.333 553.833 780.5 461L-383 71L-405 1026.5C-343.667 946.833 -137.7 782.7 195.5 763.5Z" fill="#F0FEF7"/>
<path opacity="0.03" d="M195.5 -136.5C528.7 -155.7 724.333 -346.167 780.5 -439L-383 -829L-405 126.5C-343.667 46.8333 -137.7 -117.3 195.5 -136.5Z" fill="#034425"/>
<g opacity="0.66" filter="url(#filter0_f_1515_22033)">
<path fill-rule="evenodd" clip-rule="evenodd" d="M801.144 826.886L802.381 835.981L803.269 845.102L803.808 854.239L804 863.38L803.849 872.517L803.358 881.639L802.532 890.736L801.377 899.798L799.899 908.818L798.106 917.786L796.005 926.694L793.607 935.534L790.919 944.298L787.953 952.981L784.72 961.577L781.231 970.078L777.497 978.481L773.531 986.782L769.346 994.975L764.955 1003.06L760.37 1011.03L755.605 1018.89L750.673 1026.63L745.587 1034.26L740.36 1041.78L735.004 1049.17L729.532 1056.46L723.956 1063.63L718.288 1070.69L712.538 1077.64L706.716 1084.49L700.832 1091.23L694.895 1097.88L688.913 1104.42L682.892 1110.88L676.839 1117.24L670.76 1123.51L664.657 1129.7L658.536 1135.8L652.398 1141.83L646.247 1147.77L640.085 1153.64L633.913 1159.44L627.732 1165.16L621.542 1170.81L615.343 1176.39L609.135 1181.9L602.915 1187.34L596.684 1192.7L590.439 1198L584.177 1203.23L577.897 1208.39L571.596 1213.47L565.271 1218.47L558.919 1223.4L552.537 1228.24L546.122 1233L539.671 1237.67L533.181 1242.25L526.649 1246.73L520.072 1251.11L513.448 1255.38L506.775 1259.55L500.049 1263.6L493.271 1267.52L486.437 1271.33L479.547 1275L472.6 1278.53L465.596 1281.93L458.535 1285.17L451.417 1288.27L444.244 1291.21L437.016 1294L429.736 1296.62L422.405 1299.07L415.026 1301.35L407.602 1303.46L400.138 1305.39L392.635 1307.15L385.099 1308.72L377.534 1310.12L369.944 1311.34L362.335 1312.39L354.712 1313.25L347.08 1313.94L339.445 1314.46L331.812 1314.8L324.186 1314.98L316.574 1315L308.979 1314.86L301.407 1314.56L293.861 1314.1L286.347 1313.5L278.867 1312.75L271.427 1311.85L264.029 1310.81L256.678 1309.63L249.377 1308.32L242.128 1306.87L234.936 1305.29L227.804 1303.59L220.734 1301.77L213.73 1299.84L206.794 1297.79L199.928 1295.63L193.136 1293.37L186.419 1291.02L179.78 1288.57L173.22 1286.03L166.741 1283.42L160.344 1280.72L154.031 1277.96L147.803 1275.13L141.66 1272.25L135.603 1269.32L129.632 1266.33L123.747 1263.32L117.948 1260.26L112.235 1257.19L106.606 1254.09L101.06 1250.98L95.5958 1247.86L90.2122 1244.74L84.9072 1241.62L79.6786 1238.52L74.5239 1235.43L69.4408 1232.36L64.4262 1229.32L59.4774 1226.31L54.5911 1223.33L49.764 1220.4L44.9927 1217.5L40.2737 1214.65L35.6033 1211.85L30.978 1209.1L26.3939 1206.4L21.8473 1203.76L17.3346 1201.17L12.8522 1198.64L8.39633 1196.16L3.96365 1193.74L-0.449249 1191.37L-4.84561 1189.05L-9.22845 1186.79L-13.6007 1184.57L-17.965 1182.4L-22.3239 1180.28L-26.6796 1178.19L-31.034 1176.14L-35.3891 1174.13L-39.7462 1172.15L-44.1067 1170.19L-48.4716 1168.26L-52.8415 1166.34L-57.2171 1164.43L-61.5986 1162.53L-65.9859 1160.64L-70.3791 1158.75L-74.7776 1156.85L-79.1809 1154.94L-83.5883 1153.02L-87.999 1151.09L-92.4118 1149.13L-96.8258 1147.15L-101.24 1145.13L-105.652 1143.09L-110.063 1141.02L-114.469 1138.9L-118.871 1136.75L-123.266 1134.56L-127.652 1132.32L-132.027 1130.03L-136.389 1127.7L-140.734 1125.3L-145.058 1122.85L-149.36 1120.34L-153.634 1117.76L-157.877 1115.12L-162.086 1112.41L-166.256 1109.62L-170.383 1106.76L-174.464 1103.83L-178.495 1100.81L-182.471 1097.72L-186.39 1094.55L-190.247 1091.3L-194.039 1087.97L-197.763 1084.56L-201.415 1081.07L-204.992 1077.5L-208.491 1073.85L-211.909 1070.12L-215.243 1066.32L-218.49 1062.44L-221.647 1058.49L-224.71 1054.46L-227.677 1050.36L-230.544 1046.2L-233.307 1041.96L-235.963 1037.65L-238.507 1033.28L-240.937 1028.84L-243.249 1024.34L-245.441 1019.78L-247.512 1015.17L-249.461 1010.5L-251.285 1005.78L-252.985 1001.01L-254.561 996.206L-256.013 991.359L-257.343 986.477L-258.551 981.565L-259.64 976.627L-260.612 971.666L-261.468 966.687L-262.212 961.694L-262.848 956.691L-263.377 951.681L-263.805 946.668L-264.135 941.656L-264.37 936.648L-264.515 931.647L-264.575 926.655L-264.553 921.676L-264.455 916.713L-264.284 911.766L-264.045 906.839L-263.742 901.932L-263.38 897.049L-262.964 892.189L-262.496 887.354L-261.983 882.544L-261.426 877.761L-260.831 873.005L-260.202 868.276L-259.54 863.574L-258.851 858.899L-258.138 854.251L-257.402 849.629L-256.648 845.032L-255.878 840.461L-255.094 835.913L-254.299 831.389L-253.495 826.886L-252.685 822.404L-251.869 817.942L-251.05 813.498L-250.23 809.07L-249.41 804.658L-248.592 800.26L-247.777 795.873L-246.969 791.497L-246.171 787.128L-245.387 782.765L-244.622 778.405L-243.882 774.045L-243.171 769.682L-242.496 765.311L-241.862 760.929L-241.277 756.532L-240.745 752.113L-240.274 747.669L-239.87 743.193L-239.537 738.68L-239.283 734.123L-239.111 729.516L-239.027 724.852L-239.035 720.124L-239.139 715.325L-239.34 710.447L-239.643 705.485L-240.047 700.429L-240.554 695.273L-241.163 690.011L-241.873 684.635L-242.682 679.138L-243.587 673.515L-244.583 667.76L-245.665 661.868L-246.827 655.834L-248.061 649.655L-249.359 643.327L-250.712 636.848L-252.111 630.215L-253.545 623.428L-255.004 616.487L-256.477 609.391L-257.952 602.141L-259.419 594.739L-260.864 587.187L-262.275 579.49L-263.64 571.65L-264.946 563.673L-266.18 555.565L-267.33 547.331L-268.382 538.979L-269.325 530.517L-270.146 521.953L-270.832 513.298L-271.372 504.559L-271.754 495.749L-271.967 486.879L-272 477.959L-271.843 469.003L-271.487 460.023L-270.921 451.032L-270.139 442.043L-269.132 433.07L-267.893 424.128L-266.416 415.229L-264.695 406.389L-262.726 397.622L-260.504 388.941L-258.028 380.361L-255.294 371.896L-252.301 363.56L-249.048 355.366L-245.537 347.327L-241.767 339.457L-237.742 331.767L-233.463 324.269L-228.935 316.975L-224.161 309.895L-219.147 303.04L-213.898 296.418L-208.421 290.038L-202.723 283.907L-196.812 278.034L-190.695 272.423L-184.381 267.079L-177.879 262.008L-171.199 257.213L-164.35 252.697L-157.34 248.465L-150.18 244.518L-142.878 240.86L-135.445 237.494L-127.889 234.421L-120.219 231.644L-112.447 229.164L-104.581 226.982L-96.6309 225.098L-88.6067 223.512L-80.518 222.223L-72.3747 221.229L-64.1863 220.53L-55.9627 220.121L-47.7132 220L-39.4474 220.163L-31.1745 220.606L-22.9036 221.325L-14.6435 222.312L-6.40286 223.564L1.80994 225.073L9.98688 226.834L18.1202 228.838L26.2025 231.079L34.2267 233.551L42.1861 236.244L50.0743 239.152L57.8853 242.268L65.6135 245.585L73.2535 249.095L80.8002 252.79L88.2491 256.663L95.5958 260.706L102.836 264.909L109.967 269.263L116.984 273.76L123.886 278.39L130.67 283.143L137.333 288.009L143.875 292.978L150.295 298.04L156.591 303.184L162.764 308.4L168.814 313.679L174.743 319.009L180.55 324.381L186.238 329.784L191.81 335.209L197.266 340.646L202.612 346.085L207.848 351.518L212.981 356.935L218.012 362.328L222.948 367.688L227.792 373.009L232.549 378.281L237.225 383.499L241.825 388.656L246.355 393.745L250.82 398.761L255.227 403.699L259.581 408.554L263.889 413.322L268.158 417.999L272.392 422.582L276.6 427.07L280.786 431.459L284.958 435.748L289.121 439.936L293.282 444.024L297.446 448.01L301.62 451.896L305.808 455.682L310.017 459.371L314.251 462.964L318.515 466.464L322.814 469.874L327.153 473.197L331.534 476.437L335.963 479.598L340.443 482.683L344.978 485.697L349.572 488.642L354.23 491.521L358.956 494.337L363.755 497.094L368.631 499.793L373.589 502.439L378.633 505.033L383.769 507.58L389 510.082L394.331 512.543L399.765 514.968L405.308 517.359L410.961 519.722L416.73 522.061L422.615 524.382L428.621 526.69L434.749 528.99L441.001 531.289L447.378 533.592L453.88 535.907L460.509 538.24L467.262 540.598L474.14 542.989L481.141 545.419L488.263 547.897L495.503 550.43L502.858 553.025L510.325 555.691L517.898 558.434L525.574 561.264L533.347 564.186L541.209 567.21L549.155 570.342L557.177 573.59L565.266 576.963L573.413 580.465L581.608 584.106L589.842 587.892L598.102 591.828L606.379 595.921L614.659 600.178L622.93 604.602L631.18 609.199L639.394 613.973L647.56 618.928L655.663 624.066L663.689 629.392L671.624 634.906L679.453 640.61L687.161 646.504L694.735 652.59L702.158 658.865L709.418 665.33L716.499 671.981L723.387 678.817L730.069 685.835L736.531 693.029L742.76 700.397L748.743 707.932L754.468 715.629L759.924 723.481L765.1 731.483L769.985 739.625L774.57 747.901L778.846 756.301L782.805 764.818L786.44 773.442L789.744 782.164L792.712 790.973L795.339 799.86L797.622 808.815L799.558 817.827L801.144 826.886Z" fill="black"/>
</g>
<defs>
<filter id="filter0_f_1515_22033" x="-772" y="-280" width="2076" height="2095" filterUnits="userSpaceOnUse" color-interpolation-filters="sRGB">
<feFlood flood-opacity="0" result="BackgroundImageFix"/>
<feBlend mode="normal" in="SourceGraphic" in2="BackgroundImageFix" result="shape"/>
<feGaussianBlur stdDeviation="250" result="effect1_foregroundBlur_1515_22033"/>
</filter>
</defs>
</svg>
