<svg width="280" height="62" viewBox="0 0 280 62" fill="none" xmlns="http://www.w3.org/2000/svg">
<path d="M14.2235 18.9045H12.599C12.2741 18.7229 12.0214 18.3961 12.0214 17.9966C11.9853 17.7061 12.1658 17.4518 12.4546 17.4155C12.4907 17.4155 12.5268 17.4155 12.5629 17.4155C12.9239 17.4155 13.1405 17.6334 13.2126 18.0692H14.1151C14.043 16.9797 13.4293 16.4348 12.5629 16.4348C11.8048 16.3622 11.155 16.9434 11.0828 17.7061C11.0828 17.7787 11.0828 17.8513 11.0828 17.8876C11.0828 18.2508 11.2272 18.614 11.4799 18.9045H10.9023V19.8851H14.1874V18.9045H14.2235Z" fill="#161616"/>
<path d="M17.0395 22.6808C17.0395 23.4434 16.7507 24.0246 15.7759 24.0246H10.0002C9.13377 24.0609 8.37568 23.4071 8.33958 22.4992C8.33958 22.4265 8.33958 22.3902 8.33958 22.3176V19.8843H6.46244V22.3539C6.39024 24.2788 7.9064 25.8768 9.78355 25.9494C9.85575 25.9494 9.92795 25.9494 10.0002 25.9494H16.4619C17.7975 25.9857 18.8806 24.9325 18.9166 23.5888C18.9166 23.5525 18.9166 23.5162 18.9166 23.4797V14.4365H17.0395V22.6808Z" fill="#161616"/>
<path d="M22.0924 26.1317C22.1287 27.0033 21.4427 27.7659 20.5763 27.8023C20.5402 27.8023 20.4681 27.8023 20.432 27.8023H19.6377V29.6909H20.432C22.3452 29.7272 23.9335 28.2017 24.0057 26.2769C24.0057 26.2406 24.0057 26.168 24.0057 26.1317V17.96H22.0924V26.1317Z" fill="#161616"/>
<path d="M44.7996 27.2578C44.186 27.2215 43.6445 27.6936 43.6084 28.3475C43.5722 29.0012 44.0416 29.5096 44.6913 29.5459C44.7274 29.5459 44.7996 29.5459 44.8357 29.5459C45.4494 29.5823 45.9909 29.1101 46.027 28.4564C46.063 27.8389 45.5938 27.2942 44.9439 27.2578C44.8718 27.2578 44.8357 27.2578 44.7996 27.2578Z" fill="#161616"/>
<path d="M52.452 23.2981C52.4881 23.6976 52.1994 24.0246 51.8023 24.0246H51.7661H49.6002C49.2392 23.9883 48.8782 23.9156 47.9396 21.7728C46.2791 18.2136 43.68 16.8336 40.7199 17.9231V19.6664C43.1745 18.6857 44.6546 19.6664 45.8458 22.027C46.1347 22.7171 46.4957 23.3709 46.8928 24.0246H39.5646C39.0232 24.0609 38.5178 23.6251 38.5178 23.0439C38.5178 23.0076 38.5178 22.9713 38.5178 22.935V21.0828C38.5539 19.1215 37.0016 17.4873 35.0523 17.4509C35.0162 17.4509 34.9439 17.4509 34.9079 17.4509H34.7274C32.7781 17.4146 31.1535 18.9763 31.1175 20.9375C31.1175 20.9738 31.1175 21.0465 31.1175 21.0828V22.935C31.1535 23.4797 30.7204 23.9883 30.1789 24.0246C30.1428 24.0246 30.1067 24.0246 30.0706 24.0246H28.735C28.3379 24.0246 28.049 23.6976 28.049 23.3346V23.2981V14.4365H26.1719V23.9883C26.1719 25.0778 27.0022 25.9494 28.0851 25.9857H28.1213H30.0706C30.9009 25.9857 31.695 25.6226 32.2365 24.9325C32.9946 25.5862 33.9693 25.9131 34.98 25.9131C35.8825 25.9131 36.749 25.5136 37.3626 24.8236C37.8681 25.5499 38.6983 25.9857 39.5646 25.9857H52.3437C53.4267 25.9857 54.2931 25.1504 54.2931 24.0609C54.2931 24.0246 54.2931 24.0246 54.2931 23.9883V14.4365H52.4159L52.452 23.2981ZM36.6406 22.2449C36.6767 23.1892 35.9186 23.952 35.0162 23.9883C34.2581 24.0246 33.5361 23.6614 33.0307 23.0802V21.1191C32.9946 20.2112 33.6806 19.4484 34.5829 19.3759C34.6552 19.3759 34.6913 19.3759 34.7634 19.3759H34.9439C35.8465 19.3396 36.6045 20.0296 36.6767 20.9375C36.6767 21.0102 36.6767 21.0465 36.6767 21.1191L36.6406 22.2449Z" fill="#161616"/>
<path d="M58.4807 14.4365H56.6035V25.9494H58.4807V14.4365Z" fill="#161616"/>
<path d="M64.293 17.4884H64.1125C62.1632 17.4521 60.5386 18.9775 60.5026 20.9387C60.5026 21.0113 60.5026 21.0476 60.5026 21.1202V22.2825C60.4665 24.2436 62.0187 25.8779 64.0043 25.9142H65.9897V26.2049C65.9897 27.5486 64.9789 28.275 61.73 27.6939V29.4734C65.737 30.4178 67.9029 29.0013 67.9029 26.677V21.0839C67.939 19.1228 66.4228 17.5247 64.4735 17.4521C64.4013 17.4884 64.3651 17.4884 64.293 17.4884ZM65.9897 24.0257H64.0043C63.1018 23.9531 62.3797 23.1904 62.3797 22.2825V21.1202C62.3437 20.2123 63.0295 19.4496 63.932 19.377C64.0043 19.377 64.0403 19.377 64.1125 19.377H64.293C65.1955 19.3407 65.9536 20.0307 65.9897 20.9387C65.9897 21.0113 65.9897 21.0476 65.9897 21.1202V24.0257Z" fill="#161616"/>
<path d="M75.1581 16.1445C75.7717 16.1445 76.2772 15.6361 76.2772 15.0187C76.2772 14.4013 75.7717 13.8564 75.1581 13.8564C74.5444 13.8564 74.0029 14.365 74.0029 14.9824C74.0029 15.6361 74.5082 16.1445 75.1581 16.1445Z" fill="#161616"/>
<path d="M78.371 16.1443C78.9847 16.1443 79.4901 15.6358 79.4901 15.0184C79.4901 14.401 78.9847 13.8926 78.371 13.8926C77.7574 13.8926 77.252 14.401 77.252 15.0184C77.252 15.6358 77.7574 16.1443 78.371 16.1443Z" fill="#161616"/>
<path d="M84.7245 27.8027C84.0748 27.8027 83.5693 28.3113 83.5693 28.965C83.5693 29.6187 84.0748 30.1271 84.7245 30.1271C85.3744 30.1271 85.8797 29.6187 85.8797 28.965C85.8797 28.3113 85.3744 27.8027 84.7245 27.8027Z" fill="#161616"/>
<path d="M92.2334 27.5117C91.5835 27.548 91.1143 28.0928 91.1504 28.7466C91.1865 29.3277 91.6558 29.7998 92.2334 29.8361C92.8831 29.7998 93.3525 29.2551 93.3163 28.6012C93.2802 28.0202 92.811 27.548 92.2334 27.5117Z" fill="#161616"/>
<path d="M92.9553 23.9528V18.1055H91.042V23.299C91.0782 23.6986 90.7894 24.0253 90.3923 24.0253H90.3562H86.9268C85.9521 24.0253 85.6633 23.4079 85.6633 22.6816V22.4274C85.6633 22.2821 85.6633 22.1005 85.6633 21.9552V18.1055H83.75V22.7179C83.75 23.4444 83.4613 24.0253 82.4865 24.0253H81.1871C80.6095 24.0616 80.1401 23.6258 80.1041 23.0448C80.1041 23.0084 80.1041 22.9721 80.1041 22.9358V17.4518H76.3497C74.4004 17.4155 72.8121 18.9771 72.776 20.902C72.776 20.9747 72.776 21.011 72.776 21.0836V22.2458C72.7398 24.207 74.3282 25.8413 76.2776 25.8776C77.2522 25.9139 78.1908 25.5508 78.8405 24.8244C79.4181 25.5508 80.2846 25.9503 81.1871 25.9503H82.4865C83.3169 25.9866 84.1471 25.6597 84.7247 25.006C85.2301 25.5871 85.9159 25.9139 86.674 25.9503H90.9338C92.0167 25.9503 92.8831 25.115 92.9192 24.0253C92.9553 23.989 92.9553 23.989 92.9553 23.9528ZM78.2992 23.0811C77.8298 23.6623 77.1078 24.0253 76.3497 23.989C75.4473 23.9528 74.7253 23.19 74.7253 22.2821C74.7253 22.2821 74.7253 22.2821 74.7253 22.2458V21.1199C74.653 20.212 75.339 19.4492 76.2415 19.3766C76.3136 19.3766 76.3497 19.3766 76.422 19.3766H78.2992V23.0811Z" fill="#161616"/>
<path d="M89.0204 27.5117C88.3705 27.4754 87.829 27.9475 87.793 28.6012C87.7569 29.2551 88.2263 29.7998 88.876 29.8361C88.9121 29.8361 88.9843 29.8361 89.0204 29.8361C89.6701 29.7998 90.1395 29.2551 90.1033 28.6012C90.0311 28.0203 89.598 27.548 89.0204 27.5117Z" fill="#161616"/>
<path d="M108.658 16.5067C109.272 16.5067 109.813 15.9982 109.777 15.3445C109.741 14.6907 109.272 14.1822 108.622 14.2186C108.008 14.2186 107.503 14.727 107.503 15.3445C107.503 15.9982 108.008 16.5067 108.658 16.5067Z" fill="#161616"/>
<path d="M115.481 23.2981C115.517 23.6976 115.228 24.0246 114.831 24.0246C114.795 24.0246 114.795 24.0246 114.759 24.0246H112.918V22.5718C112.918 19.1942 111.51 17.5962 108.73 17.5962C106.889 17.5962 105.337 18.8673 104.038 20.3201V18.4315H102.16V24.0609H99.5613V17.9957H97.6481V26.1673C97.6843 27.0389 97.0344 27.8017 96.1681 27.838C96.1319 27.838 96.0597 27.838 96.0237 27.838H95.1572V29.7265H95.9876C97.9008 29.7628 99.4892 28.2375 99.5613 26.3126C99.5613 26.2763 99.5613 26.2036 99.5613 26.1673V25.9857H115.445C116.528 25.9857 117.394 25.1141 117.394 24.0246V23.9883V14.4365H115.517L115.481 23.2981ZM111.113 24.0246H104.038V22.136C105.518 20.3928 106.998 19.4847 108.478 19.4847C109.958 19.4847 111.077 20.3928 111.077 22.5718L111.113 24.0246Z" fill="#161616"/>
<path d="M121.51 14.4365H119.633V25.9494H121.51V14.4365Z" fill="#161616"/>
<path d="M127.321 17.4884H127.141C125.191 17.4521 123.567 18.9775 123.531 20.9387C123.531 21.0113 123.531 21.0476 123.531 21.1202V22.2825C123.495 24.2436 125.047 25.8779 127.033 25.9142H129.018V26.2049C129.018 27.5486 128.007 28.275 124.758 27.6939V29.4734C128.765 30.4178 130.895 29.0013 130.895 26.677V21.0839C130.932 19.1228 129.415 17.5247 127.466 17.4521C127.43 17.4884 127.357 17.4884 127.321 17.4884ZM129.018 24.0257H127.033C126.13 23.9531 125.408 23.1904 125.408 22.2825V21.1202C125.372 20.2123 126.058 19.4496 126.96 19.377C127.033 19.377 127.069 19.377 127.141 19.377H127.321C128.224 19.3407 128.982 20.0307 129.018 20.9387C129.018 21.0113 129.018 21.0476 129.018 21.1202V24.0257Z" fill="#161616"/>
<path d="M141.364 16.3624C142.013 16.3261 142.484 15.7814 142.447 15.1276C142.411 14.5466 141.942 14.0744 141.364 14.0381C140.714 14.0744 140.245 14.6192 140.281 15.2729C140.318 15.8903 140.787 16.3261 141.364 16.3624Z" fill="#161616"/>
<path d="M138.15 16.3624C138.8 16.3624 139.305 15.854 139.305 15.2003C139.305 14.5466 138.8 14.0381 138.15 14.0381C137.537 14.0381 137.032 14.5466 136.995 15.164C136.995 15.854 137.5 16.3624 138.15 16.3624Z" fill="#161616"/>
<path d="M139.558 17.4521H139.306C137.357 17.4521 135.805 19.0138 135.769 20.975V22.3915C135.769 24.3163 137.321 25.9142 139.234 25.9142C139.271 25.9142 139.271 25.9142 139.306 25.9142H139.703C141.581 25.9142 143.06 24.3889 143.06 22.5004V20.975C143.06 19.0502 141.508 17.4884 139.558 17.4521ZM141.184 22.6094C141.184 23.372 140.57 24.0257 139.811 24.0257H139.342C138.44 24.0257 137.718 23.2994 137.718 22.3915V21.0113C137.682 20.1397 138.368 19.4133 139.234 19.377C139.271 19.377 139.306 19.377 139.342 19.377H139.595C140.461 19.3407 141.184 20.0307 141.22 20.9023C141.22 20.9387 141.22 20.975 141.22 21.0113L141.184 22.6094Z" fill="#161616"/>
<path d="M163.132 16.4707C163.782 16.4707 164.288 15.9623 164.288 15.3449C164.288 14.7274 163.782 14.1826 163.169 14.1826C162.519 14.1826 162.014 14.6911 162.014 15.3086C162.014 15.926 162.519 16.4344 163.132 16.4707Z" fill="#161616"/>
<path d="M167.031 23.2984C167.066 23.6979 166.778 24.0247 166.381 24.0247C166.345 24.0247 166.345 24.0247 166.308 24.0247H164.071V17.9596H162.158V26.1313C162.193 27.0029 161.543 27.7655 160.677 27.8018C160.64 27.8018 160.569 27.8018 160.532 27.8018H159.774V29.6905H160.605C162.518 29.7268 164.106 28.2013 164.142 26.2765C164.142 26.2402 164.142 26.1676 164.142 26.1313V25.9497H166.995C168.077 25.9497 168.944 25.1144 168.944 24.0247C168.944 23.9884 168.944 23.9884 168.944 23.9521V14.4004H167.066L167.031 23.2984Z" fill="#161616"/>
<path d="M173.06 14.4365H171.182V25.9494H173.06V14.4365Z" fill="#161616"/>
<path d="M180.676 16.1445C181.289 16.1445 181.794 15.6361 181.794 15.0187C181.794 14.4013 181.289 13.8564 180.676 13.8564C180.062 13.8564 179.521 14.365 179.521 14.9824C179.521 15.6361 180.026 16.1445 180.676 16.1445Z" fill="#161616"/>
<path d="M183.888 16.1443C184.503 16.1443 185.008 15.6358 185.008 15.0184C185.008 14.401 184.503 13.8926 183.888 13.8926C183.275 13.8926 182.77 14.401 182.77 15.0184C182.77 15.6358 183.275 16.1443 183.888 16.1443Z" fill="#161616"/>
<path d="M191.542 15.5634H189.809C189.448 15.3818 189.232 15.0187 189.232 14.6192C189.195 14.3285 189.376 14.038 189.664 14.0017C189.7 14.0017 189.737 14.0017 189.772 14.0017C190.134 14.0017 190.458 14.3285 190.458 14.6918H191.434C191.361 13.5296 190.711 12.9485 189.772 12.9485C188.979 12.8758 188.293 13.4569 188.221 14.2559C188.221 14.3285 188.221 14.4013 188.221 14.5101C188.221 14.9097 188.364 15.2729 188.617 15.5634H188.04V16.653H191.577L191.542 15.5634Z" fill="#161616"/>
<path d="M194.466 27.4756C193.852 27.4756 193.311 27.9841 193.311 28.6378C193.311 29.2552 193.816 29.8001 194.466 29.8001C195.079 29.8001 195.621 29.2915 195.621 28.6378C195.584 27.9841 195.079 27.512 194.466 27.4756Z" fill="#161616"/>
<path d="M197.679 27.4756C197.065 27.4756 196.523 27.9841 196.523 28.6378C196.523 29.2552 197.029 29.8001 197.679 29.8001C198.292 29.8001 198.834 29.2915 198.834 28.6378C198.797 27.9841 198.292 27.4756 197.679 27.4756Z" fill="#161616"/>
<path d="M203.887 17.7781V18.7587C202.552 19.0856 201.613 20.284 201.613 21.6642V22.5358C201.613 23.1169 201.829 23.6616 202.191 24.0611H198.581C197.642 24.0611 197.318 23.4437 197.318 22.7174V22.4269C197.318 22.2816 197.318 22.1 197.318 21.9547V18.1413H195.405V22.7537C195.405 23.4801 195.115 24.0611 194.14 24.0611H192.119C191.145 24.0611 190.855 23.4437 190.855 22.7174V18.1413H188.979V22.7174C188.979 23.4801 188.726 24.0611 187.714 24.0611H186.777C186.198 24.0975 185.73 23.6616 185.693 23.0806C185.693 23.0442 185.693 23.0079 185.693 22.9716V17.4876H181.938C179.99 17.4513 178.401 19.0129 178.365 20.9377C178.365 21.0105 178.365 21.0468 178.365 21.1194V22.2816C178.328 24.2427 179.917 25.8771 181.867 25.9134C182.841 25.9497 183.78 25.5866 184.43 24.8601C185.007 25.5866 185.874 25.9861 186.777 25.9861H187.751C188.582 26.0224 189.411 25.6955 189.989 25.0418C190.495 25.6229 191.18 25.9497 191.939 25.9861H194.176C195.007 26.0224 195.837 25.6955 196.415 25.0418C196.92 25.6229 197.605 25.9497 198.363 25.9861H208.904C210.854 25.9861 212.443 24.388 212.443 22.4269V21.301C212.37 18.5408 209.014 16.5069 203.887 17.7781ZM183.816 23.0806C183.346 23.6616 182.625 24.0248 181.867 23.9885C180.964 23.9522 180.243 23.1895 180.243 22.2816C180.243 22.2816 180.243 22.2816 180.243 22.2453V21.1194C180.17 20.2114 180.856 19.4487 181.759 19.3761C181.83 19.3761 181.867 19.3761 181.938 19.3761H183.816V23.0806ZM206.414 24.0248H204.754C203.923 23.9885 203.238 23.2985 203.202 22.4269V21.7005C203.202 20.7198 203.778 20.1389 204.826 20.1389C205.62 20.0661 206.341 20.6473 206.414 21.4463C206.414 21.5189 206.414 21.6279 206.414 21.7005V24.0248ZM208.833 24.0248H208.038V21.7368C208.111 20.5384 207.28 19.4487 206.125 19.1945C208.617 18.9403 210.493 19.9209 210.53 21.2284V22.3179C210.53 23.2622 209.772 24.0248 208.833 24.0248Z" fill="#161616"/>
<path d="M158.764 22.7899C158.764 24.5333 157.356 25.9497 155.624 25.9497H147.068C145.986 25.9497 145.118 25.1144 145.083 24.0247C145.083 23.9884 145.083 23.9884 145.083 23.9521V14.4004H146.96V23.2984C146.923 23.6979 147.212 24.0247 147.61 24.0247C147.646 24.0247 147.646 24.0247 147.681 24.0247H155.479C156.237 24.0247 156.851 23.371 156.851 22.6084C156.851 22.572 156.851 22.572 156.851 22.5357C156.851 21.4825 156.093 20.9741 155.046 20.9741H150.101L149.739 19.5576L152.627 14.4004L154.396 15.0905L152.159 19.0492H155.046C157.067 19.0492 158.727 20.6834 158.727 22.7173C158.764 22.7536 158.764 22.7536 158.764 22.7899Z" fill="#161616"/>
<path d="M13.3929 42.7296V44.2549H6.46191V43.0564L10.9382 36.3738H6.7146V34.8848H13.2124V36.1196L8.77225 42.7659H13.3929V42.7296Z" fill="#161616"/>
<path d="M15.4144 38.6617L15.1257 37.5358C17.3637 36.5916 20.36 36.519 20.36 39.497V44.2185H18.6994V43.3467C18.158 43.9641 17.3637 44.3274 16.5335 44.3274C15.5588 44.3637 14.7286 43.6011 14.6924 42.6204C14.6924 42.5478 14.6924 42.4751 14.6924 42.4025C14.6924 40.8408 16.2085 39.7875 18.6994 39.8603V39.497C18.6994 37.8627 16.9666 38.0443 15.4144 38.6617ZM16.2086 42.2209C16.2086 42.7657 16.6779 43.0562 17.2194 43.0562C17.7608 43.0562 18.3023 42.802 18.6994 42.4025V40.8408C17.0027 40.6593 16.2086 41.5672 16.2086 42.2209Z" fill="#161616"/>
<path d="M29.638 38.6617L29.3493 37.5358C31.5513 36.5916 34.5836 36.519 34.5836 39.497V44.2185H32.923V43.3467C32.3815 43.9641 31.5873 44.3274 30.7571 44.3274C29.7825 44.3637 28.9521 43.6011 28.916 42.6204C28.916 42.5478 28.916 42.4751 28.916 42.4025C28.916 40.8408 30.4322 39.7875 32.923 39.8603V39.497C32.9591 37.8627 31.2263 38.0443 29.638 38.6617ZM30.4683 42.2209C30.4683 42.7657 30.9376 43.0562 31.4791 43.0562C32.0206 43.0562 32.562 42.802 32.9591 42.4025V40.8408C31.2625 40.6593 30.4683 41.5672 30.4683 42.2209Z" fill="#161616"/>
<path d="M38.3013 42.4392C38.2652 42.8023 38.518 43.0929 38.8428 43.1292C38.879 43.1292 38.9512 43.1292 38.9873 43.1292C39.2038 43.1292 39.3843 43.0929 39.6009 43.0566V44.255C39.1678 44.3277 38.7346 44.364 38.3013 44.364C37.0379 44.364 36.6409 43.7103 36.6409 42.5844V38.7347H35.7744L35.991 37.4998H36.6409V35.8292L38.3013 35.4297V37.4998H39.7093L39.4927 38.7347H38.3375V42.4392H38.3013Z" fill="#161616"/>
<path d="M42.1281 46.5061H41.1172C41.37 45.5255 41.5503 44.5449 41.6587 43.5281L41.6948 43.0195H42.9222L42.886 43.4916C42.7056 44.5449 42.4529 45.5255 42.1281 46.5061Z" fill="#161616"/>
<path d="M49.492 36.3368V44.2178H47.687V36.3368H45.124V34.8477H52.0189V36.3368H49.492Z" fill="#161616"/>
<path d="M54.1126 38.6616L53.8238 37.5358C56.0259 36.5914 59.0582 36.5188 59.0582 39.4606V44.182H57.3976V43.3103C56.8561 43.9277 56.062 44.2909 55.2316 44.2909C54.2569 44.3272 53.4267 43.5646 53.3906 42.584C53.3906 42.5114 53.3906 42.4387 53.3906 42.3661C53.3906 40.8045 54.9068 39.7511 57.3976 39.8238V39.4606C57.4337 37.8626 55.7009 38.0442 54.1126 38.6616ZM54.9429 42.2208C54.9429 42.7656 55.376 43.0561 55.9536 43.0561C56.4951 43.0561 57.0366 42.8019 57.4337 42.4024V40.8408C55.701 40.6592 54.9429 41.5671 54.9429 42.2208Z" fill="#161616"/>
<path d="M62.4151 37.3175L63.3898 38.7703L63.9313 39.7872L64.5088 38.734L65.4474 37.2812H67.1802L64.942 40.659L67.2523 44.1817H65.2669L64.2921 42.729L63.7146 41.6758L63.137 42.729L62.1985 44.1817H60.3574L62.6677 40.659L60.3574 37.2812H62.4151V37.3175Z" fill="#161616"/>
<path d="M72.1986 38.6616L71.9098 37.5358C74.1118 36.5914 77.1442 36.5188 77.1442 39.4606V44.182H75.4836V43.3103C74.9422 43.9277 74.1479 44.2909 73.3177 44.2909C72.343 44.3272 71.5128 43.5646 71.4766 42.584C71.4766 42.5114 71.4766 42.4387 71.4766 42.3661C71.4766 40.8045 72.9927 39.7511 75.4836 39.8238V39.4606C75.5198 37.8626 73.787 38.0442 72.1986 38.6616ZM73.0289 42.2208C73.0289 42.7656 73.4621 43.0561 74.0397 43.0561C74.5812 43.0561 75.1227 42.8019 75.5198 42.4024V40.8408C73.8231 40.6592 73.0289 41.5671 73.0289 42.2208Z" fill="#161616"/>
<path d="M78.9131 44.2186V37.3182H80.5736V37.9356C81.2234 37.4271 82.0176 37.1729 82.8117 37.1729C84.1835 37.1729 84.8694 37.9719 84.8694 39.4246V44.1823H83.2088V39.9694C83.2088 39.2067 82.8839 38.8072 82.0897 38.8072C81.5121 38.8435 81.0067 39.0614 80.5736 39.4246V44.1823L78.9131 44.2186Z" fill="#161616"/>
<path d="M89.0922 44.327C87.2873 44.327 86.457 42.8017 86.457 40.7315C86.457 38.6614 87.3956 37.136 89.2005 37.136C89.8864 37.136 90.5362 37.4265 90.9693 37.8986V34.7754H92.5938V44.2181H90.9693V43.4917C90.464 44.0002 89.7781 44.327 89.0922 44.327ZM89.6697 38.4798C88.6951 38.4798 88.1537 39.2788 88.1537 40.7315C88.1537 42.1843 88.7313 42.9833 89.6697 42.9833C90.1391 42.9833 90.5722 42.8017 90.9332 42.5112V38.952C90.6083 38.6614 90.1391 38.4798 89.6697 38.4798Z" fill="#161616"/>
<path d="M101.547 44.3639C98.5506 44.3639 97.3232 42.4026 97.3232 39.5336C97.3232 36.6644 98.5506 34.7031 101.547 34.7031C102.63 34.7031 103.713 34.9575 104.687 35.4296V36.8096C103.749 36.4828 102.738 36.2649 101.727 36.1923C99.9946 36.1923 99.1281 37.3181 99.1281 39.5336C99.1281 41.7489 100.031 42.8384 101.727 42.8384C102.738 42.8021 103.749 42.5842 104.687 42.2574V43.6375C103.713 44.146 102.63 44.3639 101.547 44.3639Z" fill="#161616"/>
<path d="M112.376 37.3174V44.2542H110.716V43.5641C110.102 44.0727 109.308 44.3632 108.477 44.3632C107.106 44.3632 106.42 43.5641 106.42 42.1114V37.3174H108.08V41.603C108.08 42.3656 108.405 42.7651 109.199 42.7651C109.777 42.7288 110.282 42.5109 110.716 42.1477V37.3174H112.376Z" fill="#161616"/>
<path d="M113.965 43.8186V42.5838C114.723 42.947 115.517 43.1286 116.347 43.1649C117.358 43.1649 117.647 42.6565 117.647 42.3296C117.647 41.7849 116.997 41.567 116.239 41.3126C115.264 40.9858 114.109 40.55 114.109 39.1699C114.109 37.7897 115.156 36.8818 117.105 36.8818C117.9 36.8818 118.73 37.0634 119.452 37.4267V38.6615C118.874 38.2983 118.224 38.1167 117.539 38.1167C116.456 38.1167 116.023 38.6252 116.023 39.0246C116.023 39.6057 116.744 39.8236 117.575 40.1142C118.513 40.441 119.596 40.9131 119.596 42.148C119.596 43.6007 118.369 44.3997 116.708 44.3997C115.734 44.436 114.795 44.2181 113.965 43.8186Z" fill="#161616"/>
<path d="M122.954 42.4392C122.918 42.8023 123.17 43.0929 123.495 43.1292C123.531 43.1292 123.603 43.1292 123.639 43.1292C123.856 43.1292 124.037 43.0929 124.253 43.0566V44.255C123.82 44.3277 123.387 44.364 122.954 44.364C121.69 44.364 121.293 43.7103 121.293 42.5844V38.7347H120.427L120.643 37.4998H121.293V35.8292L122.954 35.4297V37.4998H124.361L124.145 38.7347H122.954V42.4392Z" fill="#161616"/>
<path d="M125.444 40.7312C125.444 38.6974 126.455 37.1357 128.657 37.1357C130.859 37.1357 131.869 38.6974 131.869 40.7312C131.869 42.7651 130.859 44.3267 128.657 44.3267C126.455 44.3267 125.444 42.7651 125.444 40.7312ZM126.961 40.7312C126.961 42.0751 127.502 43.1283 128.657 43.1283C129.812 43.1283 130.318 42.0751 130.318 40.7312C130.318 39.3875 129.812 38.3343 128.657 38.3343C127.502 38.3343 126.961 39.3875 126.961 40.7312Z" fill="#161616"/>
<path d="M143.602 39.4246V44.1823H141.941V39.9694C141.941 39.2067 141.617 38.8072 140.823 38.8072C140.281 38.8435 139.739 39.0977 139.307 39.4609C139.342 39.6425 139.342 39.8241 139.342 40.0057V44.2186H137.718V39.9694C137.718 39.2067 137.392 38.8072 136.599 38.8072C136.057 38.8435 135.516 39.0614 135.118 39.4246V44.1823H133.458V37.3182H135.118V38.2261C135.66 37.5724 136.455 37.2091 137.284 37.1729C138.223 37.1729 138.837 37.5361 139.126 38.2988C139.92 37.5361 140.678 37.1729 141.544 37.1729C142.915 37.1729 143.602 37.9719 143.602 39.4246Z" fill="#161616"/>
<path d="M145.154 43.8186V42.5838C145.912 42.947 146.707 43.1286 147.536 43.1649C148.548 43.1649 148.836 42.6565 148.836 42.3296C148.836 41.7849 148.186 41.567 147.428 41.3126C146.454 40.9858 145.299 40.55 145.299 39.1699C145.299 37.7897 146.346 36.8818 148.259 36.8818C149.053 36.8818 149.883 37.0634 150.569 37.4267V38.6615C149.991 38.2983 149.341 38.1167 148.691 38.1167C147.609 38.1167 147.176 38.6252 147.176 39.0246C147.176 39.6057 147.898 39.8236 148.728 40.1142C149.667 40.441 150.749 40.9131 150.749 42.148C150.749 43.6007 149.522 44.3997 147.862 44.3997C146.959 44.436 146.02 44.2181 145.154 43.8186Z" fill="#161616"/>
<path d="M157.357 41.9664L156.635 44.2181H154.865L158.331 34.7754H159.811L163.169 44.2181H161.327L160.606 41.9664H157.357ZM157.717 40.6225H160.353L159.054 36.6639L157.717 40.6225Z" fill="#161616"/>
<path d="M170.497 37.3174V44.2542H168.836V43.5641C168.222 44.0727 167.429 44.3632 166.598 44.3632C165.226 44.3632 164.54 43.5641 164.54 42.1114V37.3174H166.2V41.603C166.2 42.3656 166.526 42.7651 167.319 42.7651C167.897 42.7288 168.403 42.5109 168.836 42.1477V37.3174H170.497Z" fill="#161616"/>
<path d="M174.178 42.4392C174.142 42.766 174.394 43.0929 174.72 43.1292C174.755 43.1292 174.828 43.1292 174.863 43.1292C175.081 43.1292 175.26 43.0929 175.478 43.0566V44.255C175.044 44.3277 174.611 44.364 174.178 44.364C172.915 44.364 172.518 43.7103 172.518 42.5844V38.7347H171.65L171.868 37.4998H172.553V35.8292L174.215 35.4297V37.4998H175.586L175.37 38.7347H174.215V42.4392H174.178Z" fill="#161616"/>
<path d="M182.769 39.4238V44.1815H181.109V39.9686C181.109 39.2059 180.748 38.8064 180.098 38.8064C179.52 38.8428 178.943 39.0607 178.473 39.4238V44.1815H176.812V34.8477H178.473V37.8984C179.051 37.4263 179.809 37.1357 180.531 37.1357C181.83 37.0994 182.769 37.8984 182.769 39.4238Z" fill="#161616"/>
<path d="M184.358 40.7312C184.358 38.6974 185.369 37.1357 187.571 37.1357C189.772 37.1357 190.784 38.6974 190.784 40.7312C190.784 42.7651 189.772 44.3267 187.571 44.3267C185.369 44.3267 184.358 42.7651 184.358 40.7312ZM185.874 40.7312C185.874 42.0751 186.416 43.1283 187.571 43.1283C188.726 43.1283 189.232 42.0751 189.232 40.7312C189.232 39.3875 188.726 38.3343 187.571 38.3343C186.416 38.3343 185.874 39.3875 185.874 40.7312Z" fill="#161616"/>
<path d="M192.372 44.2177V37.3173H194.033V38.6247C194.503 37.7894 195.405 37.281 196.379 37.3173V38.6247C195.44 38.5158 194.249 39.2421 194.069 39.8958V44.2177H192.372Z" fill="#161616"/>
<path d="M197.498 35.8288C197.498 35.3565 197.895 34.957 198.364 34.957C198.834 34.957 199.231 35.3565 199.231 35.8288C199.231 36.3009 198.834 36.7004 198.364 36.7004C197.895 36.7004 197.498 36.3009 197.498 35.8288ZM199.231 44.2183H197.571V37.4994H199.231V44.2183Z" fill="#161616"/>
<path d="M203.383 42.4392C203.347 42.766 203.599 43.0929 203.924 43.1292C203.96 43.1292 204.033 43.1292 204.068 43.1292C204.286 43.1292 204.466 43.0929 204.682 43.0566V44.255C204.249 44.3277 203.816 44.364 203.383 44.364C202.119 44.364 201.723 43.7103 201.723 42.5844V38.7347H200.855L201.073 37.4998H201.723V35.8292L203.383 35.4297V37.4998H204.791L204.574 38.7347H203.418L203.383 42.4392Z" fill="#161616"/>
<path d="M212.48 37.3175L209.159 46.6877H207.607L208.292 44.6902L205.549 37.3175H207.389L209.014 42.6564L210.675 37.2812H212.48V37.3175Z" fill="#161616"/>
<path d="M27.8325 44.2178H25.9193L23.7173 41.0218V44.2178H22.0928V34.8477H23.7173V40.1865L25.7748 37.1721H27.652L25.1612 40.5134L27.8325 44.2178Z" fill="#161616"/>
<path d="M224.969 17.6699L248.687 1.43555L248.975 1.87137L225.294 18.142L224.969 17.6699Z" fill="url(#paint0_linear_301_5604)"/>
<path d="M225.006 14.7276L243.994 1.72559L244.319 2.16141L225.33 15.1997L225.006 14.7276Z" fill="url(#paint1_linear_301_5604)"/>
<path d="M225.006 11.7495L238.218 2.66992L238.544 3.10573L225.33 12.2216L225.006 11.7495Z" fill="url(#paint2_linear_301_5604)"/>
<path d="M225.042 8.80757L230.529 4.99414L230.818 5.46627L225.331 9.24339L225.042 8.80757Z" fill="url(#paint3_linear_301_5604)"/>
<path d="M260.888 22.427L257.026 25.042L237.28 38.6251L237.676 39.206L235.005 41.0947L235.222 41.4215L229.481 45.4165L229.807 45.8523L236.125 41.4215L238.181 39.9688L258.252 26.2041L257.855 25.5867L261.394 23.1533L261.176 22.8628L274.064 14.0375L273.775 13.5654L260.888 22.427Z" fill="url(#paint4_linear_301_5604)"/>
<path d="M261.97 24.6058L257.855 27.4386L238.722 40.5495L239.12 41.1307L236.268 43.1645L236.449 43.455L230.853 47.4137L231.178 47.8495L236.773 43.8908V43.9271L239.661 41.8933L258.83 28.746L258.433 28.1287L262.476 25.3684L262.259 25.0779L274.064 16.9789L273.739 16.5068L261.97 24.6058Z" fill="url(#paint5_linear_301_5604)"/>
<path d="M263.018 26.8218L259.624 29.1461L240.094 42.5475L240.491 43.165L237.857 45.0172L238.073 45.3077L232.405 49.3027L232.731 49.7386L238.362 45.7435L240.997 43.8913V43.9277L260.526 30.5261L260.129 29.9088L263.523 27.5844L263.342 27.2939L274.028 19.9213L273.738 19.4854L263.018 26.8218Z" fill="url(#paint6_linear_301_5604)"/>
<path d="M264.607 28.6735L261.25 30.9616V30.9979L241.504 44.472L241.936 45.0894L238.543 47.4501L238.76 47.7406L234.103 51.0456L234.392 51.4814L239.734 47.7406L243.344 45.1983L262.332 32.2327L261.936 31.6153L265.149 29.3998L264.931 29.1093L274.028 22.8989L273.704 22.4268L264.607 28.6735Z" fill="url(#paint7_linear_301_5604)"/>
<path d="M266.592 30.2359L262.91 32.7781L245.799 44.5089L246.196 45.1263L242.153 47.9591L242.333 48.2497L236.016 52.7168L236.341 53.1526L243.236 48.3223L246.701 45.8889L263.921 34.0493L263.523 33.4319L267.097 30.9985L266.917 30.708L273.993 25.8412L273.704 25.3691L266.592 30.2359Z" fill="url(#paint8_linear_301_5604)"/>
<path d="M270.995 30.3807L270.887 30.2356L266.556 33.2136L249.986 44.5813L250.382 45.1987L245.942 48.322L246.124 48.6126L238.29 54.1329L238.614 54.6052L246.99 48.6852L251.321 45.6345L267.493 34.5575L267.061 33.9763L271.393 30.9981L271.14 30.5988L271.32 30.853L273.992 28.9281L273.666 28.4922L270.995 30.3807Z" fill="url(#paint9_linear_301_5604)"/>
<path d="M271.067 33.0684L268.613 34.7391L258.867 41.4216L259.299 42.0391L255.147 44.9445L255.365 45.2352L240.492 55.6948L240.816 56.1306L256.267 45.2715L259.877 42.7292L269.551 36.0829L269.154 35.5018L271.573 33.7949L271.392 33.5044L273.919 31.761L273.631 31.3252L271.067 33.0684Z" fill="url(#paint10_linear_301_5604)"/>
<path d="M271.572 35.7923L271.501 35.6834L269.19 37.2815L261.465 42.5839L261.862 43.2013L258.289 45.7073L258.47 46.0342L242.803 57.0386L243.127 57.4744L259.588 45.9252V45.8889L262.765 43.6734L270.129 38.6252L269.732 38.0441L272.006 36.4462L271.753 36.0829L273.522 34.8844L273.306 34.5576L271.572 35.7923Z" fill="url(#paint11_linear_301_5604)"/>
<path d="M227.171 21.1195L229.373 19.5941L237.712 13.8559L237.28 13.2748L240.961 10.7688L240.745 10.4782L253.09 2.01608L252.766 1.54395L240.456 10.0061L236.773 12.5121L227.965 18.5772L228.363 19.1583L226.268 20.6474L226.486 20.9379L224.969 22.0275L225.258 22.4633L227.171 21.1195Z" fill="url(#paint12_linear_301_5604)"/>
<path d="M228.544 23.1169L230.709 21.5916L241.033 14.5095L240.601 13.9284L243.453 11.9672L243.272 11.713L256.7 2.4155L256.376 1.94336L242.947 11.2409V11.2045L240.095 13.1658L229.157 20.6837L229.554 21.3011L227.676 22.6085L227.894 22.9353L224.934 25.0054L225.258 25.4413L228.544 23.1169Z" fill="url(#paint13_linear_301_5604)"/>
<path d="M229.049 25.7326L231.936 23.6987L243.127 15.9992L242.73 15.3819L245.727 13.3118L245.546 13.0575L260.022 3.03367L259.697 2.56152L245.221 12.5854L242.08 14.7281L230.349 22.7908L230.746 23.4082L228.218 25.1879L228.436 25.5147L224.934 27.9481L225.223 28.4202L229.049 25.7326Z" fill="url(#paint14_linear_301_5604)"/>
<path d="M230.204 27.8749L233.344 25.6594L245.258 17.4878L244.824 16.9067L248.037 14.7276L247.821 14.4007L263.307 3.86843L263.018 3.43262L247.279 14.0739L247.315 14.1102L244.319 16.1441L231.539 24.9331L231.936 25.5505L229.012 27.5842L229.229 27.9112L224.934 30.9255L225.258 31.3615L230.204 27.8749Z" fill="url(#paint15_linear_301_5604)"/>
<path d="M231.612 29.8355L233.633 28.4192L247.351 18.9763L246.954 18.3953L250.492 15.9256L250.311 15.635L265.906 4.95748L265.581 4.48535L249.987 15.1992L246.413 17.6326L232.731 27.039L233.128 27.6564L230.493 29.5087L230.71 29.7992L225.187 33.6853L225.511 34.1211L231.612 29.8355Z" fill="url(#paint16_linear_301_5604)"/>
<path d="M232.983 31.834L235.293 30.1998L249.481 20.4664L249.084 19.8853L253.018 17.1615L252.802 16.871L268.83 5.90279L268.504 5.43066L252.476 16.4351V16.3988L248.326 19.2679L233.886 29.1829L234.319 29.8003L231.828 31.5072L232.044 31.834L225.691 36.3012L225.981 36.737L232.983 31.834Z" fill="url(#paint17_linear_301_5604)"/>
<path d="M233.381 34.5212L236.702 32.1968L253.452 20.7566L253.019 20.1392L256.737 17.5969L256.521 17.3063L271.393 7.10086L271.104 6.66504L256.231 16.8705L252.405 19.4855L235.005 31.3614L235.402 31.9789L232.297 34.158L232.515 34.4485L226.377 38.7704L226.666 39.2425L233.381 34.5212Z" fill="url(#paint18_linear_301_5604)"/>
<path d="M233.778 37.1727L236.702 35.1027L254.895 22.6092L254.498 22.028L258.217 19.4858L258.036 19.1589L273.775 8.37234L273.451 7.93652L257.711 18.7231L253.993 21.2653L235.402 34.013L235.799 34.6304L232.659 36.8459L232.875 37.1364L227.244 41.0951L227.532 41.5673L233.778 37.1727Z" fill="url(#paint19_linear_301_5604)"/>
<path d="M234.355 39.7139L236.846 37.9344L256.268 24.6419L255.871 24.0245L259.408 21.5912L259.228 21.3006L274.101 11.0952L273.775 10.623L258.903 20.8285L255.365 23.2619L235.907 36.5907L236.341 37.208L233.417 39.2781L233.633 39.5688L228.255 43.3096L228.579 43.7454L234.355 39.7139Z" fill="url(#paint20_linear_301_5604)"/>
<path d="M245.077 58.3461L271.935 39.5332L272.223 39.969L245.366 58.8183L245.077 58.3461Z" fill="url(#paint21_linear_301_5604)"/>
<path d="M247.206 60.4159L269.84 44.5811L270.13 45.0532L247.532 60.8517L247.206 60.4159Z" fill="url(#paint22_linear_301_5604)"/>
<path d="M255.221 57.8013L265.147 50.8281L265.473 51.3004L255.545 58.2371L255.221 57.8013Z" fill="url(#paint23_linear_301_5604)"/>
<defs>
<linearGradient id="paint0_linear_301_5604" x1="258.764" y1="-9.58698" x2="210.778" y2="32.5521" gradientUnits="userSpaceOnUse">
<stop stop-color="#62B34F"/>
<stop offset="0.46" stop-color="#51BAB4"/>
<stop offset="1" stop-color="#0094D3"/>
</linearGradient>
<linearGradient id="paint1_linear_301_5604" x1="257.099" y1="-11.4953" x2="209.113" y2="30.6438" gradientUnits="userSpaceOnUse">
<stop stop-color="#62B34F"/>
<stop offset="0.46" stop-color="#51BAB4"/>
<stop offset="1" stop-color="#0094D3"/>
</linearGradient>
<linearGradient id="paint2_linear_301_5604" x1="255.333" y1="-13.4947" x2="207.351" y2="28.6445" gradientUnits="userSpaceOnUse">
<stop stop-color="#62B34F"/>
<stop offset="0.46" stop-color="#51BAB4"/>
<stop offset="1" stop-color="#0094D3"/>
</linearGradient>
<linearGradient id="paint3_linear_301_5604" x1="253.493" y1="-15.5926" x2="205.512" y2="26.5466" gradientUnits="userSpaceOnUse">
<stop stop-color="#62B34F"/>
<stop offset="0.46" stop-color="#51BAB4"/>
<stop offset="1" stop-color="#0094D3"/>
</linearGradient>
<linearGradient id="paint4_linear_301_5604" x1="275.086" y1="9.0059" x2="227.105" y2="51.145" gradientUnits="userSpaceOnUse">
<stop stop-color="#62B34F"/>
<stop offset="0.46" stop-color="#51BAB4"/>
<stop offset="1" stop-color="#0094D3"/>
</linearGradient>
<linearGradient id="paint5_linear_301_5604" x1="276.603" y1="10.7268" x2="228.617" y2="52.8703" gradientUnits="userSpaceOnUse">
<stop stop-color="#62B34F"/>
<stop offset="0.46" stop-color="#51BAB4"/>
<stop offset="1" stop-color="#0094D3"/>
</linearGradient>
<linearGradient id="paint6_linear_301_5604" x1="278.131" y1="12.4682" x2="230.145" y2="54.6074" gradientUnits="userSpaceOnUse">
<stop stop-color="#62B34F"/>
<stop offset="0.46" stop-color="#51BAB4"/>
<stop offset="1" stop-color="#0094D3"/>
</linearGradient>
<linearGradient id="paint7_linear_301_5604" x1="279.654" y1="14.2074" x2="231.672" y2="56.3466" gradientUnits="userSpaceOnUse">
<stop stop-color="#62B34F"/>
<stop offset="0.46" stop-color="#51BAB4"/>
<stop offset="1" stop-color="#0094D3"/>
</linearGradient>
<linearGradient id="paint8_linear_301_5604" x1="281.214" y1="15.9817" x2="233.232" y2="58.1209" gradientUnits="userSpaceOnUse">
<stop stop-color="#62B34F"/>
<stop offset="0.46" stop-color="#51BAB4"/>
<stop offset="1" stop-color="#0094D3"/>
</linearGradient>
<linearGradient id="paint9_linear_301_5604" x1="282.827" y1="17.8175" x2="234.845" y2="59.9565" gradientUnits="userSpaceOnUse">
<stop stop-color="#62B34F"/>
<stop offset="0.46" stop-color="#51BAB4"/>
<stop offset="1" stop-color="#0094D3"/>
</linearGradient>
<linearGradient id="paint10_linear_301_5604" x1="284.478" y1="19.7003" x2="236.496" y2="61.8394" gradientUnits="userSpaceOnUse">
<stop stop-color="#62B34F"/>
<stop offset="0.46" stop-color="#51BAB4"/>
<stop offset="1" stop-color="#0094D3"/>
</linearGradient>
<linearGradient id="paint11_linear_301_5604" x1="286.072" y1="21.5123" x2="238.09" y2="63.6558" gradientUnits="userSpaceOnUse">
<stop stop-color="#62B34F"/>
<stop offset="0.46" stop-color="#51BAB4"/>
<stop offset="1" stop-color="#0094D3"/>
</linearGradient>
<linearGradient id="paint12_linear_301_5604" x1="260.561" y1="-7.53422" x2="212.579" y2="34.605" gradientUnits="userSpaceOnUse">
<stop stop-color="#62B34F"/>
<stop offset="0.46" stop-color="#51BAB4"/>
<stop offset="1" stop-color="#0094D3"/>
</linearGradient>
<linearGradient id="paint13_linear_301_5604" x1="262.235" y1="-5.62897" x2="214.252" y2="36.5102" gradientUnits="userSpaceOnUse">
<stop stop-color="#62B34F"/>
<stop offset="0.46" stop-color="#51BAB4"/>
<stop offset="1" stop-color="#0094D3"/>
</linearGradient>
<linearGradient id="paint14_linear_301_5604" x1="263.902" y1="-3.73062" x2="215.919" y2="38.4086" gradientUnits="userSpaceOnUse">
<stop stop-color="#62B34F"/>
<stop offset="0.46" stop-color="#51BAB4"/>
<stop offset="1" stop-color="#0094D3"/>
</linearGradient>
<linearGradient id="paint15_linear_301_5604" x1="265.618" y1="-1.77393" x2="217.636" y2="40.3652" gradientUnits="userSpaceOnUse">
<stop stop-color="#62B34F"/>
<stop offset="0.46" stop-color="#51BAB4"/>
<stop offset="1" stop-color="#0094D3"/>
</linearGradient>
<linearGradient id="paint16_linear_301_5604" x1="267.219" y1="0.0437682" x2="219.237" y2="42.1829" gradientUnits="userSpaceOnUse">
<stop stop-color="#62B34F"/>
<stop offset="0.46" stop-color="#51BAB4"/>
<stop offset="1" stop-color="#0094D3"/>
</linearGradient>
<linearGradient id="paint17_linear_301_5604" x1="268.843" y1="1.89559" x2="220.86" y2="44.0347" gradientUnits="userSpaceOnUse">
<stop stop-color="#62B34F"/>
<stop offset="0.46" stop-color="#51BAB4"/>
<stop offset="1" stop-color="#0094D3"/>
</linearGradient>
<linearGradient id="paint18_linear_301_5604" x1="270.474" y1="3.75344" x2="222.491" y2="45.8926" gradientUnits="userSpaceOnUse">
<stop stop-color="#62B34F"/>
<stop offset="0.46" stop-color="#51BAB4"/>
<stop offset="1" stop-color="#0094D3"/>
</linearGradient>
<linearGradient id="paint19_linear_301_5604" x1="272.069" y1="5.56702" x2="224.087" y2="47.7063" gradientUnits="userSpaceOnUse">
<stop stop-color="#62B34F"/>
<stop offset="0.46" stop-color="#51BAB4"/>
<stop offset="1" stop-color="#0094D3"/>
</linearGradient>
<linearGradient id="paint20_linear_301_5604" x1="273.578" y1="7.28427" x2="225.592" y2="49.4234" gradientUnits="userSpaceOnUse">
<stop stop-color="#62B34F"/>
<stop offset="0.46" stop-color="#51BAB4"/>
<stop offset="1" stop-color="#0094D3"/>
</linearGradient>
<linearGradient id="paint21_linear_301_5604" x1="287.623" y1="23.3504" x2="239.756" y2="65.486" gradientUnits="userSpaceOnUse">
<stop stop-color="#62B34F"/>
<stop offset="0.46" stop-color="#51BAB4"/>
<stop offset="1" stop-color="#0094D3"/>
</linearGradient>
<linearGradient id="paint22_linear_301_5604" x1="289.084" y1="25.8063" x2="241.084" y2="67.789" gradientUnits="userSpaceOnUse">
<stop stop-color="#62B34F"/>
<stop offset="0.46" stop-color="#51BAB4"/>
<stop offset="1" stop-color="#0094D3"/>
</linearGradient>
<linearGradient id="paint23_linear_301_5604" x1="290.703" y1="27.6635" x2="242.703" y2="69.6462" gradientUnits="userSpaceOnUse">
<stop stop-color="#62B34F"/>
<stop offset="0.46" stop-color="#51BAB4"/>
<stop offset="1" stop-color="#0094D3"/>
</linearGradient>
</defs>
</svg>
