<svg width="105" height="105" viewBox="0 0 105 105" fill="none" xmlns="http://www.w3.org/2000/svg">
<g clip-path="url(#clip0_538_15489)">
<path d="M56.7996 8.15204L8.89265 0.872277C6.66949 0.523545 4.40273 1.13383 2.70267 2.57234C1.0026 4.05445 0 6.19043 0 8.41359V100.261C0 102.658 1.96161 104.62 4.35914 104.62H18.5264V81.7343C18.5264 77.506 21.9265 74.1058 26.1548 74.1058H37.0527C41.2811 74.1058 44.6812 77.506 44.6812 81.7343V104.62H63.2076V15.6934C63.2076 11.9445 60.5049 8.76232 56.7996 8.15204ZM23.9753 64.2978H17.4366C15.6319 64.2978 14.1672 62.8331 14.1672 61.0284C14.1672 59.2237 15.6319 57.7591 17.4366 57.7591H23.9753C25.78 57.7591 27.2446 59.2237 27.2446 61.0284C27.2446 62.8331 25.78 64.2978 23.9753 64.2978ZM23.9753 51.2204H17.4366C15.6319 51.2204 14.1672 49.7557 14.1672 47.951C14.1672 46.1463 15.6319 44.6816 17.4366 44.6816H23.9753C25.78 44.6816 27.2446 46.1463 27.2446 47.951C27.2446 49.7557 25.78 51.2204 23.9753 51.2204ZM23.9753 38.1429H17.4366C15.6319 38.1429 14.1672 36.6783 14.1672 34.8736C14.1672 33.0689 15.6319 31.6042 17.4366 31.6042H23.9753C25.78 31.6042 27.2446 33.0689 27.2446 34.8736C27.2446 36.6783 25.78 38.1429 23.9753 38.1429ZM23.9753 25.0655H17.4366C15.6319 25.0655 14.1672 23.6008 14.1672 21.7962C14.1672 19.9915 15.6319 18.5268 17.4366 18.5268H23.9753C25.78 18.5268 27.2446 19.9915 27.2446 21.7962C27.2446 23.6008 25.78 25.0655 23.9753 25.0655ZM45.771 64.2978H39.2323C37.4276 64.2978 35.9629 62.8331 35.9629 61.0284C35.9629 59.2237 37.4276 57.7591 39.2323 57.7591H45.771C47.5757 57.7591 49.0403 59.2237 49.0403 61.0284C49.0403 62.8331 47.5757 64.2978 45.771 64.2978ZM45.771 51.2204H39.2323C37.4276 51.2204 35.9629 49.7557 35.9629 47.951C35.9629 46.1463 37.4276 44.6816 39.2323 44.6816H45.771C47.5757 44.6816 49.0403 46.1463 49.0403 47.951C49.0403 49.7557 47.5757 51.2204 45.771 51.2204ZM45.771 38.1429H39.2323C37.4276 38.1429 35.9629 36.6783 35.9629 34.8736C35.9629 33.0689 37.4276 31.6042 39.2323 31.6042H45.771C47.5757 31.6042 49.0403 33.0689 49.0403 34.8736C49.0403 36.6783 47.5757 38.1429 45.771 38.1429ZM45.771 25.0655H39.2323C37.4276 25.0655 35.9629 23.6008 35.9629 21.7962C35.9629 19.9915 37.4276 18.5268 39.2323 18.5268H45.771C47.5757 18.5268 49.0403 19.9915 49.0403 21.7962C49.0403 23.6008 47.5757 25.0655 45.771 25.0655Z" fill="#9DA4AE"/>
<path d="M98.604 47.2622L67.5669 40.7627V104.62H96.9911C101.198 104.62 104.62 101.198 104.62 96.9913V54.7163C104.62 51.1157 102.165 48.0512 98.604 47.2622ZM88.2728 91.5423H81.7341C79.9294 91.5423 78.4647 90.0777 78.4647 88.273C78.4647 86.4683 79.9294 85.0036 81.7341 85.0036H88.2728C90.0775 85.0036 91.5422 86.4683 91.5422 88.273C91.5422 90.0777 90.0775 91.5423 88.2728 91.5423ZM88.2728 78.4649H81.7341C79.9294 78.4649 78.4647 77.0002 78.4647 75.1956C78.4647 73.3909 79.9294 71.9262 81.7341 71.9262H88.2728C90.0775 71.9262 91.5422 73.3909 91.5422 75.1956C91.5422 77.0002 90.0775 78.4649 88.2728 78.4649ZM88.2728 65.3875H81.7341C79.9294 65.3875 78.4647 63.9228 78.4647 62.1181C78.4647 60.3134 79.9294 58.8488 81.7341 58.8488H88.2728C90.0775 58.8488 91.5422 60.3134 91.5422 62.1181C91.5422 63.9228 90.0775 65.3875 88.2728 65.3875Z" fill="#9DA4AE"/>
</g>
<defs>
<clipPath id="clip0_538_15489">
<rect width="104.619" height="104.619" fill="white"/>
</clipPath>
</defs>
</svg>
