<svg width="125" height="125" viewBox="0 0 125 125" fill="none" xmlns="http://www.w3.org/2000/svg">
<g clip-path="url(#clip0_538_12048)">
<path d="M62.2734 124.547C96.6661 124.547 124.547 96.6661 124.547 62.2734C124.547 27.8808 96.6661 0 62.2734 0C27.8808 0 0 27.8808 0 62.2734C0 96.6661 27.8808 124.547 62.2734 124.547Z" fill="#25935F"/>
<path d="M46.3613 90.3656L78.382 122.386C104.902 115.314 124.547 91.1514 124.547 62.2738C124.547 61.6845 124.547 61.0952 124.547 60.5058L99.4018 37.3252L46.3613 90.3656Z" fill="#1B8354"/>
<path d="M63.8449 76.2215C66.5951 78.9717 66.5951 83.6864 63.8449 86.4366L58.1479 92.1336C55.3977 94.8838 50.683 94.8838 47.9327 92.1336L22.9841 66.9885C20.2338 64.2382 20.2338 59.5235 22.9841 56.7733L28.681 51.0764C31.4313 48.3261 36.146 48.3261 38.8962 51.0764L63.8449 76.2215Z" fill="white"/>
<path d="M85.6504 32.8068C88.4007 30.0566 93.1154 30.0566 95.8656 32.8068L101.563 38.5038C104.313 41.254 104.313 45.9687 101.563 48.719L58.3444 91.7406C55.5942 94.4909 50.8795 94.4909 48.1292 91.7406L42.4323 86.0437C39.6821 83.2935 39.6821 78.5788 42.4323 75.8285L85.6504 32.8068Z" fill="white"/>
</g>
<defs>
<clipPath id="clip0_538_12048">
<rect width="124.547" height="124.547" fill="white"/>
</clipPath>
</defs>
</svg>
