<svg width="24" height="24" viewBox="0 0 24 24" fill="none" xmlns="http://www.w3.org/2000/svg">
<rect width="24" height="24" rx="12" fill="url(#paint0_linear_954_17613)"/>
<path d="M12.3359 14.167C13.2691 14.1671 14.1357 14.447 14.8623 14.9336C15.5889 15.4203 15.8359 16.2667 15.8359 17C15.8359 17.2732 15.6091 17.4998 15.3359 17.5H9.33594C9.0626 17.5 8.83594 17.2733 8.83594 17C8.83594 16.2668 9.08886 15.4203 9.80859 14.9336C10.5286 14.4469 11.4026 14.167 12.3359 14.167ZM8.66895 10.833C8.90895 10.833 9.14247 10.8537 9.36914 10.9004H9.3623C9.34235 11.0402 9.32912 11.1866 9.3291 11.333C9.3291 12.2796 9.76259 13.1195 10.4492 13.6729C10.0959 13.7995 9.76268 13.967 9.45605 14.167H6.00195C5.72887 14.1668 5.50213 13.9401 5.50195 13.667C5.50195 12.9537 5.71581 12.1066 6.36914 11.6133C7.02244 11.1267 7.80902 10.833 8.66895 10.833ZM15.9951 10.833C16.8549 10.8331 17.6417 11.1267 18.2949 11.6133C18.9482 12.1066 19.1611 12.9537 19.1611 13.667C19.161 13.9402 18.9344 14.167 18.6611 14.167H15.208C14.8947 13.967 14.5613 13.7995 14.208 13.6729C14.8945 13.1195 15.3281 12.2796 15.3281 11.333C15.3281 11.1866 15.3149 11.0402 15.2949 10.9004C15.5215 10.8537 15.7552 10.833 15.9951 10.833ZM12.3359 9.16699C13.529 9.16717 14.5018 10.1399 14.502 11.333C14.502 12.5262 13.5291 13.4998 12.3359 13.5C11.1426 13.5 10.1689 12.5263 10.1689 11.333C10.1691 10.1398 11.1427 9.16699 12.3359 9.16699ZM8.66895 6.5C9.68217 6.5 10.5018 7.31982 10.502 8.33301C10.502 9.34634 9.68228 10.167 8.66895 10.167C7.65561 10.167 6.83594 9.34634 6.83594 8.33301C6.83611 7.31982 7.65572 6.5 8.66895 6.5ZM16.002 6.5C17.0152 6.5 17.8358 7.31982 17.8359 8.33301C17.8359 9.34634 17.0153 10.167 16.002 10.167C14.9888 10.1668 14.1689 9.34623 14.1689 8.33301C14.1691 7.31993 14.9889 6.50018 16.002 6.5Z" fill="#6C737F"/>
<defs>
<linearGradient id="paint0_linear_954_17613" x1="12" y1="0" x2="12" y2="24" gradientUnits="userSpaceOnUse">
<stop stop-color="white"/>
<stop offset="1" stop-color="#999999" stop-opacity="0.5"/>
</linearGradient>
</defs>
</svg>
