<svg width="32" height="24" viewBox="0 0 32 24" fill="none" xmlns="http://www.w3.org/2000/svg">
<path d="M0 0H32V12C32 18.6274 26.6274 24 20 24H0V0Z" fill="#089E55"/>
<path fill-rule="evenodd" clip-rule="evenodd" d="M23.5179 5.95748C23.8175 6.24349 23.8285 6.71823 23.5425 7.01786L13.0425 18.0179C12.9031 18.1639 12.7106 18.2476 12.5087 18.25C12.3068 18.2523 12.1125 18.1731 11.9697 18.0303L8.46967 14.5303C8.17678 14.2374 8.17678 13.7626 8.46967 13.4697C8.76256 13.1768 9.23744 13.1768 9.53033 13.4697L12.4875 16.4269L22.4575 5.98214C22.7435 5.68252 23.2182 5.67148 23.5179 5.95748Z" fill="white"/>
</svg>
