<svg width="32" height="32" viewBox="0 0 32 32" fill="none" xmlns="http://www.w3.org/2000/svg">
<path d="M6.49255 28L3.98755 25.5H6.49255V28Z" fill="#A3313A"/>
<path d="M25.5 28L28.005 25.5H25.5V28Z" fill="#A3313A"/>
<path d="M25.5075 6.49988H21.5125V2.50488L25.5075 6.49988Z" fill="#B2B2B2"/>
<path d="M21.5 2.5H7.295C7.08415 2.5 6.88194 2.58376 6.73285 2.73285C6.58376 2.88194 6.5 3.08415 6.5 3.295V28.795C6.5 29.0063 6.58359 29.209 6.73254 29.3589C6.88149 29.5088 7.08369 29.5937 7.295 29.595H24.705C24.8118 29.5944 24.9173 29.5724 25.0155 29.5303C25.1136 29.4883 25.2024 29.427 25.2765 29.3501C25.3505 29.2732 25.4085 29.1823 25.4469 29.0827C25.4853 28.983 25.5033 28.8767 25.5 28.77V6.5H21.5V2.5Z" fill="#F1F1F1"/>
<path d="M4.5 16.5H27.5C27.6326 16.5 27.7598 16.5527 27.8536 16.6464C27.9473 16.7402 28 16.8674 28 17V25.5H4V17C4 16.8674 4.05268 16.7402 4.14645 16.6464C4.24021 16.5527 4.36739 16.5 4.5 16.5Z" fill="#C84D52"/>
<path d="M11.8391 21.565V23H10.8391V18.91H12.4391C12.8426 18.8817 13.2412 19.0128 13.5491 19.275C13.682 19.4038 13.7853 19.56 13.8518 19.7326C13.9182 19.9053 13.9463 20.0904 13.9341 20.275C13.9367 20.511 13.8782 20.7435 13.7641 20.95C13.647 21.1522 13.4731 21.3156 13.2641 21.42C13.01 21.5413 12.7305 21.5996 12.4491 21.59L11.8391 21.565ZM12.9391 20.25C12.9391 19.89 12.7391 19.71 12.3391 19.71H11.8391V20.775H12.3391C12.7391 20.775 12.9391 20.6 12.9391 20.25Z" fill="white"/>
<path d="M17.8529 22C17.6819 22.3084 17.4247 22.5604 17.1129 22.725C16.7623 22.9055 16.372 22.9949 15.9779 22.985H14.4329V18.91H15.9779C16.3715 18.8996 16.7615 18.9872 17.1129 19.165C17.4256 19.3261 17.6832 19.5768 17.8529 19.885C18.0284 20.212 18.1162 20.579 18.1079 20.95C18.1123 21.3159 18.0246 21.677 17.8529 22ZM16.7879 21.795C16.9948 21.5553 17.1086 21.2492 17.1086 20.9325C17.1086 20.6158 16.9948 20.3097 16.7879 20.07C16.5397 19.8538 16.2163 19.7442 15.8879 19.765H15.4229V22.1H15.8879C16.2143 22.1249 16.5374 22.0208 16.7879 21.81V21.795Z" fill="white"/>
<path d="M21.3316 18.9092V19.6992H19.6516V20.5942H20.9466V21.3442H19.6516V22.9992H18.6516V18.9092H21.3316Z" fill="white"/>
<path d="M16.4487 5.26529C16.4855 5.61185 16.4515 5.96229 16.3487 6.29529C15.9037 7.83029 14.4137 13.4253 13.2887 14.2203C11.6837 15.3603 10.8487 14.0653 11.7037 13.1453C12.5587 12.2253 17.7187 11.0003 19.3637 11.0003C21.5037 11.0003 21.2287 12.8953 20.0137 12.7803C18.6437 12.6503 15.2187 10.3153 15.0137 5.87529C14.9237 4.29529 16.2937 4.00029 16.4487 5.26529Z" stroke="#C84D52" stroke-width="0.375" stroke-miterlimit="10"/>
</svg>
