<svg width="131" height="68" viewBox="0 0 131 68" fill="none" xmlns="http://www.w3.org/2000/svg">
<path d="M90.4383 51.3634C90.4157 51.1227 90.3928 50.8755 90.3689 50.6138C90.1353 48.1169 89.908 45.0325 89.8398 42.6223C89.8161 41.7892 89.9013 42.2079 89.8912 41.6326C89.8745 40.5064 89.82 39.4559 89.8631 38.3321C89.8787 37.9618 89.9767 38.4257 89.9916 38.0352C90.0687 36.4201 90.1143 34.8771 90.5498 33.1999C90.7043 32.6495 90.9186 32.0709 91.3043 31.5209C91.7296 30.8878 92.4976 30.342 93.2833 30.1987C94.0661 30.0419 94.7689 30.1466 95.4041 30.2853C96.6699 30.5813 97.7593 31.0542 98.8457 31.4416C102.571 32.9003 106.541 33.0816 110.512 32.4052C114.342 31.7661 118.165 30.6676 121.984 29.4887C123.697 28.9552 125.6 28.3516 127.494 27.7121C127.937 27.5629 128.388 27.4083 128.827 27.2561C128.938 27.2174 129.043 27.1807 129.159 27.1403C129.205 27.124 129.275 27.0994 129.321 27.0834C129.351 27.073 129.383 27.0617 129.406 27.0539C129.419 27.0496 129.442 27.0415 129.455 27.037C129.459 27.0358 129.463 27.0346 129.466 27.0333C129.466 27.0335 129.475 27.0297 129.509 27.0202C129.522 27.0172 129.528 27.0133 129.586 27.004C129.629 27.0078 129.626 26.9641 129.887 27.0331C129.956 27.0586 130.067 27.1049 130.174 27.2395C130.285 27.371 130.328 27.5938 130.3 27.7292C130.237 28.004 130.146 28.0391 130.111 28.0857C129.967 28.2059 129.98 28.1761 129.956 28.1931C129.94 28.2009 129.937 28.2021 129.936 28.2028C129.908 28.2152 129.904 28.2162 129.891 28.2213C129.658 28.3101 129.449 28.3872 129.233 28.4688C128.368 28.7949 127.526 29.1193 126.714 29.4428C126.325 29.5977 126.592 29.5937 126.52 29.6293C125.398 30.1865 125.706 29.8688 124.945 30.1365C123.091 30.7906 121.135 31.5247 119.216 32.2726C117.98 32.7539 116.769 33.2377 115.614 33.7062C114.392 34.2032 115.701 33.8854 114.405 34.2841C114.316 34.3117 114.594 34.0973 114.253 34.2202C113.483 34.4975 112.023 35.0897 111.421 35.3176C110.27 35.7525 110.077 35.8293 108.987 36.2551C107.502 36.8342 105.709 37.4828 104.119 38.1255C103.778 38.2636 104.266 38.1814 103.731 38.4079C103.196 38.6347 101.75 39.1871 101.255 39.3533C100.759 39.5202 100.938 39.3663 100.845 39.3829C100.086 39.5136 98.4905 40.3561 98.2796 40.4428C94.3955 42.0349 90.9922 43.2032 87.3052 44.5859C84.507 45.6355 81.5183 46.7816 78.843 47.7433C75.6472 48.8907 72.9335 49.793 69.8047 50.8642C69.4762 50.9762 69.8988 50.9579 69.4985 51.0944C69.3697 51.1383 69.2414 51.1819 69.1135 51.2253C64.9598 52.6322 60.8166 53.9147 56.5818 55.0071C56.1501 55.1178 56.6784 54.8648 56.2414 54.9703C53.556 55.6364 49.2751 56.4515 47.7577 57.2117C45.9224 57.5814 43.6752 57.9637 41.9931 58.0926C41.3863 58.1396 41.4449 58.0796 41.3824 58.0586C41.327 58.0417 41.2062 58.0512 40.6238 58.1338C40.328 58.1728 40.7267 58.2364 40.2707 58.2843C40.0306 58.3007 39.8291 58.3416 39.463 58.2884C39.3941 58.27 39.3585 58.2766 39.215 58.1884C39.1599 58.1506 39.0555 58.065 39.0088 57.9067C38.9653 57.7424 38.9995 57.6389 39.0322 57.5566C39.1563 57.3197 39.2261 57.3107 39.2883 57.2503C39.4178 57.1505 39.5172 57.0916 39.631 57.0235C40.0607 56.7739 40.4822 56.5678 40.9029 56.3562C41.7484 55.9352 42.5861 55.5212 43.3795 55.0952C43.4463 55.0593 43.5134 55.0231 43.5808 54.9864C43.9163 54.8037 43.7794 54.7739 43.868 54.7108C44.6114 54.1869 46.0315 53.681 46.3282 53.5407C48.5785 52.4781 50.1539 51.5673 52.1841 50.4493C52.6552 50.1893 52.0411 50.3935 52.4923 50.1394C54.3384 49.1 56.2418 48.0325 58.0805 46.997C58.5716 46.7201 59.0571 46.446 59.5355 46.1715C60.038 45.8821 59.635 46.244 59.877 46.1102C60.9243 45.5088 61.1518 45.1961 61.9193 44.5763C62.0035 44.4891 62.0266 44.5947 62.0481 44.5832C62.0636 44.5803 62.0576 44.5816 62.0576 44.6568C62.0493 44.744 62.1555 44.8699 62.1814 44.8674C62.2363 44.8818 62.1554 44.8496 62.1053 44.8502C61.9836 44.842 61.8362 44.8659 61.7199 44.8951C61.4743 44.9558 61.2954 45.042 61.2029 45.0594C61.1219 45.0755 61.0376 45.0926 60.9501 45.1105C58.8814 45.5675 57.416 45.768 55.3476 46.3365C55.0896 46.4088 55.7008 46.3606 54.9753 46.5571C51.8112 47.4151 48.5225 48.3101 45.2517 49.076C43.5183 49.4795 41.7976 49.8436 40.0909 50.1223C39.3236 50.2443 39.8565 50.0665 39.8065 50.0652C38.9946 50.0461 38.5197 50.3257 38.2667 50.3675C37.0707 50.5251 35.9461 50.7114 34.7781 50.3041C34.5761 50.2079 34.3669 50.0447 34.2673 49.7895C34.1702 49.5361 34.2004 49.3042 34.2445 49.1107C34.3386 48.7358 34.4913 48.4525 34.6153 48.1828C35.2004 47.3892 35.8649 46.7446 36.4787 46.0708C36.7851 45.7364 37.0888 45.3966 37.334 45.0553C37.4573 44.8827 37.5655 44.7056 37.6189 44.558C37.6461 44.4851 37.6522 44.4251 37.6495 44.4099C37.6443 44.395 37.6614 44.4204 37.6415 44.3994C33.4363 42.9798 28.4759 46.2884 23.4441 46.5877C23.0345 46.5746 22.6062 46.5452 22.1721 46.3966C21.9519 46.3162 21.7113 46.2033 21.5222 45.9573C21.328 45.7102 21.3037 45.3626 21.3615 45.1224C21.6446 44.1717 22.2672 43.6581 22.8251 43.0852C22.9027 43.0106 22.8415 43.2207 22.9958 43.0726C23.2558 42.825 23.476 42.6241 23.6611 42.4527C24.8113 41.4076 24.6109 41.4137 25.5982 40.3422C25.8317 40.0887 26.7341 39.5269 26.8184 39.3882C26.8326 39.3751 26.8352 39.4032 26.8413 39.4123C26.8879 39.4851 26.89 39.4237 26.8914 39.4046C26.8948 39.379 26.9111 39.3581 26.9346 39.344C26.9805 39.3127 27.0558 39.3303 27.0169 39.284C25.962 38.8658 26.0657 39.5288 24.5322 39.4335C24.4843 39.4308 24.6894 39.344 24.5613 39.3295C24.1581 39.2839 23.7523 39.3054 23.3563 39.255C23.1194 39.2246 22.9226 39.1832 22.7328 39.1401C22.2127 39.0186 21.7728 38.893 20.7452 38.9211C20.5664 38.9219 20.8143 39.2523 19.4171 39.0938C18.8601 39.0511 16.3996 38.6561 15.7291 38.4277C15.0564 38.2297 15.5467 38.2624 15.4989 38.2459C13.7364 37.5892 14.4342 37.7343 13.6412 37.2299C12.8813 36.6868 12.9275 37.1773 12.5589 37.0415C12.2055 36.926 11.2171 36.1351 10.953 35.7837C10.934 35.7617 10.9175 35.7423 10.9039 35.7258C10.6897 35.4592 11.028 35.7182 10.8344 35.4899C10.2226 34.7161 10.1228 34.5264 10.0155 34.5303C9.92126 34.5256 9.88884 34.6862 9.69073 34.406C8.77555 33.0262 8.95685 31.6385 9.08282 30.2638C9.1247 29.8823 9.02096 30.1885 9.05071 29.8464C9.20831 28.4932 9.52797 27.733 10.012 26.2786C10.0848 26.0421 10.4318 24.8167 10.9601 24.1891C11.0342 24.1008 10.9442 24.4198 11.2445 23.9321C11.5252 23.4796 11.9614 22.807 12.3907 22.1925C12.6445 21.8272 12.8975 21.4758 13.0969 21.1954C13.4927 20.6456 12.9103 21.1794 13.4696 20.5309C13.7213 20.245 13.3444 20.8408 13.8093 20.3067C14.2673 19.7683 15.4609 18.4153 15.9392 17.9236C16.4132 17.4252 16.0796 17.6275 16.1133 17.5821C16.3124 17.3125 17.2206 16.3468 17.306 16.2709C21.5658 12.2059 26.1548 9.23267 31.195 6.56569C31.5924 6.35859 31.2782 6.39881 31.3384 6.36623C32.6948 5.64104 31.7345 6.43094 32.738 6.05083C32.5488 5.94651 32.9012 5.76635 33.5666 5.45362C33.7184 5.38241 33.8865 5.30455 34.0683 5.21953C34.5404 4.99981 34.2474 5.03695 34.2874 5.00991C34.9477 4.584 35.5119 4.53509 35.6524 4.51422C36.1717 4.4374 36.6385 4.10076 36.9932 4.05621C37.3472 4.01205 36.6414 4.40298 37.6099 4.04371C37.856 3.87184 37.0639 3.9436 37.7925 3.64492C40.5359 2.46375 45.9777 1.25999 48.3382 0.926778C50.6885 0.551713 51.4613 0.467524 52.8413 0.359462C55.3475 0.214719 54.4206 0.136009 55.9832 0.0120015C57.5541 -0.0718897 56.7872 0.309838 57.0125 0.387103C57.2346 0.468809 57.4673 0.391224 57.7441 0.44424C58.0124 0.497899 57.4291 0.529298 58.0582 0.57093C58.2001 0.580969 58.3936 0.587052 58.6061 0.592193C59.3864 0.60055 60.489 0.672154 60.6761 0.654306C61.1843 0.610765 60.4531 0.140942 62.1223 0.771346C62.2144 0.814519 61.8729 0.774764 62.2291 0.938244C62.9156 1.25719 63.623 1.83675 63.8003 2.65768C63.9829 3.46285 63.7311 4.26447 63.4277 4.95335C62.7791 6.3614 61.8295 7.55477 60.8625 8.67904C60.8351 8.71051 60.8119 8.73536 60.7921 8.75469C60.6225 8.91873 60.7277 8.65678 60.5881 8.81307C58.9116 10.6309 59.6288 10.0729 58.8463 11.2099C58.8559 10.8033 58.2404 11.2388 56.9087 12.5544C56.1082 13.3382 56.3198 13.2933 55.8569 13.8526C55.7147 14.024 55.0821 14.5098 55.0131 14.6493C54.7846 15.1079 55.4815 14.7465 53.9999 15.9983C53.9349 16.0524 54.0667 15.7979 53.8471 15.9903C52.4178 17.2327 52.3698 17.5287 50.8424 18.8923C49.6451 19.9611 47.3844 21.7185 45.9608 22.8608C45.7983 22.6031 44.5075 23.7503 44.0942 24.3513C43.1639 25.093 42.1749 25.898 41.2552 26.5877C40.9403 26.8238 41.0888 26.5947 41.044 26.618C40.3538 26.973 40.0727 27.451 39.8765 27.6146C37.785 29.3446 35.9349 30.5745 33.9584 32.225C33.9123 32.2634 33.8662 32.3021 33.82 32.341C33.748 32.4015 33.7525 32.6619 33.0929 32.9618C33.0499 32.9806 33.6939 32.3815 32.6906 33.1194C31.6873 33.8576 29.7301 35.1576 28.3894 36.2527C28.0642 36.5185 27.3088 37.2784 26.5422 37.6677C26.4401 37.7192 26.5048 37.5979 26.3531 37.6661C25.8627 37.8884 25.7521 38.2308 25.1446 38.4458C24.5338 38.6633 23.4098 39.3056 22.0659 40.4238C22.0233 40.4589 21.7867 40.8364 21.339 41.1545C20.6288 41.6588 19.5945 42.358 18.856 42.8907C18.5022 43.146 18.79 43.068 18.7295 43.1138C16.3753 44.8825 14.6258 46.0271 12.0731 47.874C11.5989 48.2166 10.3623 49.3238 9.41006 49.9182C8.36686 50.5761 9.0331 49.3811 6.89842 51.2433C6.13848 51.9188 5.48555 53.1222 4.15757 54.177C3.98963 54.3121 3.81544 54.4424 3.63385 54.567C2.30574 55.9966 0.697291 57.3848 0.58119 59.4289C0.820459 61.6132 3.2235 62.2444 5.00281 62.8328C5.15548 62.8777 5.64689 62.8771 6.04225 62.9601C6.08635 62.9693 6.12934 62.9798 6.17053 62.9917C6.77052 63.1649 7.0821 63.3324 7.50885 63.446C9.31657 63.9229 11.0071 64.1892 12.7767 64.5246C13.4479 64.6497 13.1975 64.6953 14.0009 64.8396C14.8026 64.9813 15.36 64.9566 16.4416 65.1813C17.2583 65.3504 18.0503 65.7074 19.1455 65.8869C19.2194 65.6607 19.9725 65.7727 21.3212 65.8821C21.5806 65.9029 21.3142 65.7872 21.4375 65.7928C21.9388 65.8139 22.3902 65.9371 22.8665 65.9479C22.9822 65.9506 22.9972 65.872 23.0926 65.8697C23.9015 65.8481 25.1977 66.1705 25.4191 66.2246C26.2739 66.4344 26.6864 66.3711 27.349 66.4825C28.0066 66.5924 27.0106 66.5561 27.7825 66.658C28.4373 66.7437 29.1723 66.8214 29.9192 66.8889C31.0063 66.9873 32.1276 67.0635 33.096 67.1252C33.747 67.1658 33.3092 67.0325 33.4024 67.0358C34.7566 67.0905 36.1187 67.2622 36.8758 67.077C37.7944 67.6567 37.6931 67.058 39.6216 67.2109C39.7722 67.2226 39.9624 67.4863 39.3765 67.5122C38.7903 67.538 37.9044 67.4338 37.0896 67.4643C36.8994 67.4726 35.7829 67.6712 35.6336 67.6782C34.4484 67.739 34.3018 67.339 34.2407 67.3152C33.5479 67.0493 32.1889 67.2242 31.8324 67.216C31.1452 67.2028 30.5163 67.165 29.9003 67.1194C29.0578 67.057 28.2668 66.982 27.4779 66.9411C26.5889 66.8937 26.4779 67.1371 25.784 67.0577C23.4757 66.7864 22.7162 66.3393 20.5084 66.3654C20.0351 66.3682 20.4597 66.7092 18.8226 66.2635C18.7187 66.2359 17.5124 65.8628 16.7801 65.8781C16.6882 65.8802 16.6788 65.9606 16.5598 65.9493C15.7599 65.8708 15.2433 65.7235 14.3755 65.6096C13.5088 65.4955 12.4647 65.3573 11.4878 65.1408C10.902 65.012 10.1713 64.7084 9.89691 64.6122C9.12236 64.341 8.2344 64.3153 7.77207 64.0696C7.31178 63.8221 8.31638 63.873 7.05057 63.4662C6.94958 63.6571 6.78422 63.8368 6.65274 64.0206C6.37416 63.946 6.08111 63.864 5.8059 63.783C4.52948 63.3997 3.26239 62.9883 2.03169 62.2761C1.42395 61.9096 0.793183 61.4573 0.360758 60.717C-0.0894156 59.9737 -0.0785675 58.9919 0.175267 58.2692C0.316458 57.8703 0.0566176 58.2335 0.223909 57.809C1.02936 56.0806 2.16397 55.1194 3.37787 53.882C3.46378 53.7973 3.55168 53.7105 3.64166 53.6219C4.51756 52.7572 5.46129 51.8247 6.42211 51.0075C7.22536 50.6584 8.78848 49.3246 9.98241 48.4504C10.3979 48.1448 10.4101 48.2164 10.72 48.0091C11.8759 47.2386 11.2305 47.4578 11.5175 47.2015C12.7459 46.1108 13.1447 46.4144 14.6939 45.268C14.7738 45.2087 15.6361 44.2651 15.7645 44.1528C16.5905 43.4262 15.9663 44.1167 16.529 43.733C17.563 43.0286 18.2983 42.5749 19.4455 41.6582C19.7768 41.3928 20.5163 40.6652 21.2619 40.2822C21.3602 40.2315 21.3605 40.3356 21.435 40.2883C22.7712 39.4308 22.65 39.1899 23.3347 38.5865C24.0175 37.9847 25.2612 37.3144 25.5238 37.1899C26.2099 36.8632 25.0938 37.5727 25.0695 37.6066C24.7781 38.014 25.5922 37.3932 26.2314 36.9474C26.4756 37.0932 27.3522 36.4385 26.895 36.4828C26.8435 36.4889 26.3652 36.8654 26.2314 36.9474C26.6367 36.338 27.5888 35.6077 28.7988 35.0204C29.366 34.7443 28.9702 35.1984 30.461 34.0442C31.1364 33.5199 30.764 33.5712 31.3414 33.0835C31.9477 32.571 32.6759 32.0392 33.4202 31.5071C34.2955 30.8814 35.1923 30.2559 35.9466 29.6627C36.4532 29.2639 35.8945 29.5667 36.2382 29.2916C37.1498 28.5608 38.0116 27.989 38.9131 27.2385C38.9949 27.1702 38.7265 27.249 39.0138 27.0232C41.1849 25.3118 43.1067 23.8632 45.3397 22.0299C46.4199 21.1454 48.2883 19.503 49.3884 18.567C51.2997 16.9521 53.69 15.0068 55.2066 13.5084C56.1911 12.5352 55.9047 12.6624 56.276 12.2026C57.0039 11.3088 58.5788 10.0144 58.7825 9.83925C58.792 9.83457 57.992 10.718 58.4686 10.2902C58.8029 10.096 58.7718 9.85132 58.7825 9.83925C58.8836 9.75604 59.6635 8.93145 60.2149 8.27137C60.4791 7.95767 60.6787 7.70396 60.7697 7.57859C60.9179 7.37269 60.7534 7.42397 60.8304 7.31902C61.7257 6.07921 62.6405 4.69071 62.7955 3.47468C62.8471 2.87935 62.7034 2.55248 62.2344 2.20861C61.7631 1.87477 61.0467 1.65241 60.3129 1.50544C60.2616 1.49409 60.36 1.40077 60.2372 1.37551C59.6354 1.25368 59.0852 1.20678 58.5658 1.18802C57.5956 1.15683 56.7434 1.2239 55.7513 1.30032C54.2372 1.4215 53.029 1.50748 52.1074 1.41645C50.9623 1.55783 49.3013 1.7185 48.3486 1.83857C47.3974 1.95626 47.305 2.19695 47.224 2.21568C44.6788 2.86471 43.1781 3.11199 40.5656 3.88871C39.3221 4.2529 36.9128 5.14689 35.6349 5.71646C34.9919 5.99608 34.5057 6.19228 34.0026 6.41465C33.7131 6.54294 33.4184 6.68027 33.0874 6.85082C32.9648 6.91402 33.1312 6.93946 33.0949 6.96086C32.1231 7.55633 32.5128 7.11263 32.2834 7.17842C31.455 7.42577 30.9414 7.59084 29.6967 8.36271C29.4077 8.54098 28.7249 9.31768 28.2144 9.6511C27.5484 10.0857 27.7411 9.82565 27.0507 10.294C26.9918 10.3346 27.044 10.3867 26.6099 10.6631C24.6011 11.9453 22.4751 13.4563 20.5927 15.0648C20.3366 15.2838 20.7418 15.0913 20.3721 15.4117C18.644 16.9124 16.8549 18.6604 15.3759 20.3079C15.0121 20.7141 15.1712 20.4011 15.0761 20.4756C14.4888 20.9382 14.0317 21.883 13.9352 22.0236C13.7358 22.305 13.5391 22.5892 13.356 22.8619C11.4765 25.7612 9.85823 28.5066 10.2699 31.9142C10.2691 32.1432 10.8633 33.4782 11.1037 34.0803C11.1114 34.1158 11.2783 34.6601 11.7186 34.9849C11.7686 35.0223 11.8216 35.0569 11.877 35.0872C11.9118 35.1018 11.6649 34.7628 12.2068 35.2321C12.7589 35.7031 13.8704 36.22 14.8714 36.6696C15.1812 36.8152 15.9258 37.2633 17.0054 37.3205C17.0776 37.3362 18.7459 37.2591 19.3038 37.5622C19.3951 37.6107 19.2612 37.8775 20.5651 37.8611C20.8138 37.8554 20.37 37.761 21.0235 37.776C21.5427 37.7861 22.1557 37.8281 22.7961 37.8544C23.3927 37.8792 24.0066 37.8913 24.6107 37.8587C24.8372 37.8525 25.7337 37.6827 26.6028 37.9123C26.753 37.9571 26.4298 37.9862 26.9737 38.0942C27.1226 38.1362 27.2734 38.1514 27.5859 38.3415C27.7345 38.4373 27.9929 38.6512 28.1096 39.0174C28.2238 39.3834 28.1458 39.6755 28.0888 39.838C27.9692 40.1463 27.8609 40.2607 27.7691 40.3819C27.6766 40.4957 27.5907 40.5863 27.5106 40.6679C27.3472 40.833 27.1966 40.9696 27.0454 41.1047C26.7446 41.3722 26.4534 41.6185 26.1639 41.8658C25.5864 42.3576 25.0232 42.8434 24.4745 43.3316C24.3221 43.4671 24.1709 43.6023 24.0233 43.7362C23.5563 44.1699 23.6774 43.8365 23.2057 44.2906C22.982 44.512 22.639 44.8957 22.4997 45.2058C22.424 45.3623 22.4723 45.4086 22.4355 45.2987C22.3824 45.2115 22.4237 45.2679 22.5258 45.281C22.7403 45.3157 22.7665 45.2331 22.7935 45.1728C22.8339 45.1074 22.8598 45.0724 23.3059 45.0867C23.3559 45.0877 23.4084 45.0881 23.4633 45.0878C27.615 44.7504 31.8789 41.9321 37.5811 42.7309C37.9604 42.862 38.0728 42.9245 38.1528 42.9462C38.2337 42.9771 38.3087 42.9775 38.6082 43.195C38.8502 43.3548 39.2464 43.9036 39.2017 44.4829C39.0228 45.7041 38.5635 45.9609 38.2043 46.4773C37.8243 46.937 37.4226 47.3653 37.0271 47.7989C36.6349 48.2292 36.2331 48.6731 35.9398 49.0847C35.7954 49.2817 35.6819 49.5074 35.6814 49.5358C35.6765 49.5511 35.7175 49.4365 35.6374 49.2445C35.5508 49.0492 35.4203 48.987 35.4223 48.9881C35.3892 48.9852 35.676 49.0515 35.9236 49.0567C36.186 49.0693 36.4772 49.0625 36.7677 49.0464C37.3512 49.0133 37.9449 48.9449 38.5153 48.8696C39.6509 48.7179 40.6943 48.539 41.5307 48.4104C44.1506 47.9863 40.909 48.7994 42.9052 48.419C43.7272 48.2585 44.5502 47.8682 44.9208 47.7145C44.9846 47.688 45.0347 47.6686 45.0686 47.6591C47.298 47.0244 48.8895 46.7217 50.9059 46.15C51.3224 46.0315 50.8846 46.0374 51.2394 45.9376C52.45 45.596 53.7428 45.299 54.9062 44.9826C55.4272 44.8409 55.3135 44.7864 55.7943 44.667C56.9547 44.379 57.9867 44.1482 59.1513 43.9536C59.2578 43.9361 58.5737 44.1994 59.4462 44.0008C59.8308 43.9149 60.2533 43.8289 60.6984 43.7536C60.9994 43.7035 61.3046 43.6563 61.6508 43.6277C61.8357 43.6152 61.9975 43.5998 62.2736 43.6262C62.4353 43.6671 62.5595 43.593 62.9962 43.9297C63.2297 44.1122 63.3683 44.5807 63.3063 44.8233C63.2663 45.0551 63.1922 45.171 63.1387 45.2618C62.9192 45.5848 62.7882 45.6664 62.6433 45.7991C62.499 45.9215 62.3709 46.0199 62.2331 46.1232C61.9687 46.3207 61.7133 46.5004 61.4637 46.678C61.0546 46.9656 61.1351 47.1408 60.1603 47.5766C59.956 47.6661 60.0858 47.3333 59.1263 48.1202C59.0933 48.1471 58.9982 48.2216 58.8545 48.3287C58.3175 48.7326 57.1188 49.5772 56.3563 49.8546C56.106 49.9456 55.4229 50.1209 54.9275 50.4316C54.8606 50.4744 55.1866 50.4066 54.7688 50.652C53.2919 51.5165 51.7172 52.3735 50.1875 53.2403C49.7793 53.4716 50.4436 53.2292 49.8323 53.5715C48.1528 54.5116 46.0177 55.6182 44.3149 56.4465C44.2281 56.4888 44.1616 56.519 44.1107 56.5401C43.7846 56.6762 44.0732 56.4578 44.0302 56.4705C43.2317 56.7034 42.8914 57.0991 42.6581 57.228C41.9231 57.6321 41.248 57.9491 40.6511 58.2533C40.5094 58.3259 40.3574 58.4083 40.2735 58.461C40.2555 58.4719 40.2387 58.4838 40.2436 58.4791C40.2526 58.4623 40.2639 58.4908 40.4008 58.2835C40.4509 58.1914 40.6683 57.8303 40.4368 57.3129C40.385 57.2036 40.311 57.1065 40.2514 57.0452C40.2007 56.9924 40.1511 56.9517 40.1062 56.9198C40.0186 56.8574 39.9352 56.8221 39.9016 56.8092C39.7485 56.7556 39.7439 56.7702 39.7387 56.7672C39.8539 56.7824 40.283 56.7511 40.6325 56.7056C41.0328 56.6542 40.7369 56.5888 40.8164 56.5711C41.0025 56.5307 41.1128 56.5108 41.1901 56.5034C41.4385 56.4799 41.1604 56.6264 41.5864 56.5868C43.109 56.4447 44.794 56.1473 46.3169 55.8329C46.8821 55.7156 46.2303 55.7301 46.7264 55.6275C49.6954 55.0074 52.7699 54.2545 55.6597 53.5285C56.2112 53.3896 55.8885 53.5687 56.0072 53.5568C56.815 53.48 57.9015 52.9722 58.163 52.8773C59.3188 52.4568 59.8069 52.3921 60.8465 52.0639C63.2504 51.3025 65.9022 50.4479 68.5548 49.5624C71.4977 48.5807 74.4421 47.5659 76.952 46.6823C83.1631 44.4889 87.9719 42.767 93.8361 40.5062C94.2091 40.3623 93.7911 40.3976 94.1119 40.2722C98.2535 38.6578 102.345 37.1187 106.484 35.4652C106.824 35.3296 106.29 35.4198 106.838 35.1972C107.955 34.7427 109.368 34.1953 110.521 33.7805C111.076 33.5813 110.376 33.9574 110.932 33.7555C112.249 33.2765 113.631 32.742 114.955 32.2026C115.521 31.9723 114.616 32.2065 115.362 31.912C116.427 31.491 117.522 31.0578 118.577 30.643C120.551 29.8669 122.493 29.1117 124.467 28.3663C125.448 27.9957 126.446 27.6246 127.432 27.2657C127.929 27.0848 128.439 26.9009 128.932 26.726C129.006 26.6994 129.046 26.6857 129.122 26.6583C129.156 26.6462 129.174 26.64 129.213 26.6259C129.229 26.6201 129.238 26.617 129.251 26.6125C129.257 26.6105 129.265 26.6068 129.237 26.6189C129.233 26.6207 129.228 26.6229 129.22 26.6264C129.222 26.6261 129.201 26.6344 129.153 26.66C129.124 26.6779 129.097 26.6844 128.981 26.7757C128.923 26.839 128.816 26.8629 128.65 27.2345C128.571 27.4166 128.521 27.811 128.706 28.1453C128.889 28.4795 129.147 28.6016 129.287 28.6567C129.58 28.7547 129.658 28.7235 129.73 28.7271C129.796 28.7236 129.829 28.7179 129.856 28.7138C129.907 28.7051 129.927 28.6996 129.944 28.6955C129.976 28.6874 129.986 28.6841 129.995 28.6814C130.012 28.6763 130.015 28.6752 130.017 28.6745C130.018 28.674 130.017 28.674 130.016 28.6744C129.913 28.7072 129.776 28.7532 129.647 28.7957C129.391 28.8804 129.143 28.9612 128.886 29.0447C128.633 29.1267 128.387 29.0968 128.004 29.1731C127.838 29.2045 127.633 29.2619 127.405 29.3556C127.368 29.4355 127.396 29.5051 127.393 29.578C121.975 31.4487 116.552 33.1923 110.808 34.1898C108.647 34.538 106.42 34.7193 104.171 34.5382C103.824 34.5082 104.416 34.6829 103.74 34.6207C101.811 34.4353 99.935 33.9462 98.1847 33.3144C96.4453 32.7 94.5151 31.8265 93.4894 32.1592C93.3967 32.191 93.3533 32.1514 93.2606 32.1467C93.172 32.1481 93.0175 32.1623 92.7941 32.4778C92.7346 32.5395 92.4221 33.1041 92.3058 33.6821C92.2506 33.9231 92.216 34.1529 92.2066 34.2747C92.2043 34.3283 92.3509 34.0752 92.266 34.558C91.8344 37.4507 91.9764 40.7619 92.0843 43.8487C92.1048 44.3489 91.9661 43.8225 91.9802 44.1802C92.061 46.2168 92.2936 48.3976 92.4359 50.4401C92.4703 50.9409 92.4983 51.4319 92.5167 51.9105C92.5752 53.5533 92.3466 52.9564 92.2221 53.8393C92.2075 53.9617 92.2472 54.9873 92.1346 55.0429C91.8722 55.1752 91.576 54.6995 91.2977 54.9021C91.2677 54.919 91.2765 55.2665 91.2474 55.4359C91.2346 55.5159 91.212 55.5786 91.1931 55.5962C91.1739 55.6064 91.1706 55.5345 91.146 55.4126C91.1562 55.4195 91.0916 54.4906 91.023 54.2505C90.9802 54.0892 90.8892 54.3894 90.8272 54.0576C90.7646 53.725 90.8304 53.3497 90.7378 52.7895C90.6434 52.2294 90.5432 52.4912 90.4383 51.3634ZM44.0694 2.51175C43.18 2.62981 43.1471 3.02493 44.0565 2.70281C44.1003 2.68702 44.1151 2.50564 44.0694 2.51175ZM1.3277 61.4045C0.44269 60.4678 0.146893 59.406 0.33297 60.4698C0.732752 61.5205 1.62689 61.6745 1.3277 61.4045ZM13.0841 64.9136C11.7555 64.5397 11.4425 65.0195 12.9152 65.181C13.0008 65.1902 13.1622 64.9352 13.0841 64.9136ZM91.8633 49.8285C91.8601 49.8363 91.8949 50.2898 91.912 50.4842C91.9171 50.5411 91.9208 50.5781 91.9222 50.5818C91.9728 50.7091 91.9939 50.6303 91.9954 50.4771C91.9997 50.1879 91.9274 49.6156 91.8633 49.8285ZM25.0781 66.4625C24.6591 66.3462 23.4241 66.2889 23.9435 66.4377C24.3614 66.5584 25.5991 66.6084 25.0781 66.4625ZM9.26773 30.24C9.25745 30.2546 9.22654 30.7702 9.26161 30.7614C9.35693 30.7266 9.37735 30.0164 9.26773 30.24ZM45.5834 67.4762C42.5514 67.4292 40.7173 66.9779 44.0183 67.0537C44.6158 67.0672 42.7283 67.1834 43.4893 67.2288C44.8809 67.3119 45.8098 67.0411 47.2303 67.2164C47.4871 67.2469 45.7551 67.4781 45.578 67.4768C45.5798 67.4766 45.5816 67.4764 45.5834 67.4762ZM43.4608 2.2017C43.4412 2.20062 42.744 2.37846 42.7286 2.38867C42.3827 2.60227 43.7861 2.24344 43.4608 2.2017ZM21.6735 44.7107C21.6873 44.7248 21.3401 45.1379 21.5542 45.7124C21.8449 46.2512 22.3866 46.2673 22.3999 46.2893C22.6346 46.2928 22.5881 46.2453 22.4144 46.1772C22.2495 46.1036 21.902 45.9999 21.7232 45.698C21.5467 45.3855 21.679 45.0301 21.7357 44.8403C21.8007 44.6463 21.8122 44.558 21.6735 44.7107ZM45.9335 22.8728C45.3991 23.4672 44.6781 24.0724 44.0971 24.3492C44.7095 23.8641 45.3189 23.3687 45.9335 22.8728Z" fill="#9DA4AE"/>
</svg>
