<svg width="17" height="18" viewBox="0 0 17 18" fill="none" xmlns="http://www.w3.org/2000/svg">
<path d="M9.47168 2.50806C10.1563 1.76253 10.5754 1.41317 11.3781 0.9375V11.5817L16.124 10.6051C16.0719 11.0775 16.0212 11.2782 15.9294 11.6213C15.8375 11.9644 15.7505 12.2484 15.5803 12.6309L9.47168 13.9046V2.50806Z" fill="#161616"/>
<path d="M7.59375 0C6.60697 0.567412 6.43915 0.778683 5.68925 1.53089V13.2574L0.545341 14.3463C0.263404 14.8346 -0.0185318 16.3392 0.00160646 16.3655C0.0217447 16.3919 5.43031 15.2041 5.59334 15.2041C5.9095 15.059 6.11023 14.9732 6.32504 14.7158C6.53984 14.4584 6.82178 14.0295 6.82178 14.0295L7.36552 13.2112C7.5294 12.9804 7.58273 12.8411 7.59375 12.5711V0Z" fill="#161616"/>
<path d="M1.44898 10.0031L16.1357 6.89648C15.9913 7.80532 15.8645 8.25483 15.5651 8.95637L0.905273 12.063C1.00916 11.2871 1.09239 10.8459 1.44898 10.0031Z" fill="#161616"/>
<path d="M10.0131 15.913L16.1274 14.6514C16.0106 15.5008 15.8941 15.9536 15.577 16.7116L9.45605 18C9.5939 17.1926 9.71779 16.7392 10.0131 15.913Z" fill="#161616"/>
</svg>
