<svg width="20" height="20" viewBox="0 0 20 20" fill="none" xmlns="http://www.w3.org/2000/svg">
<path d="M11.4043 3.50806C12.0889 2.76253 12.508 2.41317 13.3107 1.9375V12.5817L18.0567 11.6051C18.0045 12.0775 17.9538 12.2782 17.862 12.6213C17.7701 12.9644 17.6832 13.2484 17.5129 13.6309L11.4043 14.9046V3.50806Z" fill="#9DA4AE"/>
<path d="M9.52637 1C8.53959 1.56741 8.37177 1.77868 7.62186 2.53089V14.2574L2.47796 15.3463C2.19602 15.8346 1.91409 17.3392 1.93422 17.3655C1.95436 17.3919 7.36293 16.2041 7.52596 16.2041C7.84212 16.059 8.04284 15.9732 8.25765 15.7158C8.47246 15.4584 8.7544 15.0295 8.7544 15.0295L9.29813 14.2112C9.46202 13.9804 9.51535 13.8411 9.52637 13.5711V1Z" fill="#9DA4AE"/>
<path d="M3.38159 11.0031L18.0683 7.89648C17.9239 8.80532 17.7971 9.25483 17.4977 9.95637L2.83789 13.063C2.94178 12.2871 3.02501 11.8459 3.38159 11.0031Z" fill="#9DA4AE"/>
<path d="M11.9457 16.913L18.06 15.6514C17.9432 16.5008 17.8267 16.9536 17.5097 17.7116L11.3887 19C11.5265 18.1926 11.6504 17.7392 11.9457 16.913Z" fill="#9DA4AE"/>
</svg>
