<svg width="124" height="124" viewBox="0 0 124 124" fill="none" xmlns="http://www.w3.org/2000/svg">
<path fill-rule="evenodd" clip-rule="evenodd" d="M62.0404 16.792C49.8987 16.792 40.082 26.6087 40.082 38.7503C40.082 50.892 49.8987 60.7087 62.0404 60.7087C74.182 60.7087 83.9987 50.892 83.9987 38.7503C83.9987 26.6087 74.182 16.792 62.0404 16.792ZM62.0404 68.4587C52.327 68.4587 43.2336 70.474 35.587 73.9356C27.9403 77.449 24.582 85.4052 24.582 92.8452C24.582 95.0668 24.582 97.4951 24.7887 99.2001C25.047 101.008 25.6153 102.972 27.217 104.574C28.8187 106.175 30.7304 106.743 32.5904 107.002C34.2437 107.208 36.3103 107.209 38.532 107.209H85.497C87.7187 107.209 89.7854 107.208 91.4387 107.002C93.2987 106.743 95.2103 106.175 96.812 104.574C98.4137 102.972 98.982 101.008 99.2404 99.2001C99.447 97.4951 99.447 95.0668 99.447 92.8452C99.447 85.4052 96.0887 77.449 88.442 73.9356C80.7954 70.474 71.702 68.4587 61.9886 68.4587H62.0404Z" fill="#9DA4AE"/>
</svg>
