<svg width="51" height="36" viewBox="0 0 51 36" fill="none" xmlns="http://www.w3.org/2000/svg">
<path fill-rule="evenodd" clip-rule="evenodd" d="M16.1256 23.7873H13.036L10.7191 14.6885C10.6092 14.27 10.3757 13.8999 10.0322 13.7256C9.17508 13.2873 8.23057 12.9385 7.2002 12.7626V12.4123H12.1773C12.8642 12.4123 13.3794 12.9385 13.4653 13.5496L14.6674 20.1129L17.7555 12.4123H20.7592L16.1256 23.7873ZM22.4764 23.7873H19.5585L21.9612 12.4123H24.8791L22.4764 23.7873ZM28.6544 15.5636C28.7403 14.9509 29.2555 14.6006 29.8565 14.6006C30.801 14.5127 31.8299 14.6886 32.6885 15.1253L33.2037 12.6762C32.3451 12.3259 31.4006 12.15 30.5434 12.15C27.7114 12.15 25.6507 13.7256 25.6507 15.9124C25.6507 17.5759 27.1104 18.4494 28.1407 18.9756C29.2555 19.5003 29.6848 19.8507 29.5989 20.3753C29.5989 21.1624 28.7403 21.5127 27.8832 21.5127C26.8528 21.5127 25.8224 21.2504 24.8794 20.8121L24.3642 23.2627C25.3946 23.6994 26.5093 23.8754 27.5397 23.8754C30.7152 23.9618 32.6885 22.3877 32.6885 20.025C32.6885 17.0497 28.6544 16.8753 28.6544 15.5636V15.5636ZM42.9001 23.7873L40.5833 12.4123H38.0947C37.5795 12.4123 37.0644 12.7626 36.8926 13.2873L32.6024 23.7873H35.6062L36.2057 22.1253H39.8964L40.2398 23.7873H42.9001ZM38.5241 15.4757L39.3812 19.7627H36.9786L38.5241 15.4757Z" fill="#172B85"/>
</svg>
