<svg width="38" height="38" viewBox="0 0 38 38" fill="none" xmlns="http://www.w3.org/2000/svg">
<path d="M24.8758 7.35412L14.076 19.1906L20.7896 25.3161L31.5893 13.4797L24.8758 7.35412Z" fill="#10AF31"/>
<path opacity="0.1" d="M15.0099 19.1267L25.3649 7.75835L24.8899 7.34668L14.0916 19.19L20.8049 25.3017L21.2482 24.8267L15.0099 19.1267Z" fill="black"/>
<path d="M25.9032 10.8617C25.3965 11.4317 24.5099 11.4634 23.9715 10.9567L23.8765 10.8617L17.5432 17.8284L17.6382 17.9234C18.2082 18.43 18.2399 19.3167 17.7332 19.855L19.8549 21.7867C20.3615 21.2167 21.2482 21.185 21.7865 21.6917L21.8815 21.7867L28.2149 14.82L28.1199 14.725C27.5499 14.2184 27.5182 13.3317 28.0249 12.7934L25.9032 10.8617Z" fill="#98D049"/>
<path d="M22.8315 18.2401C23.8809 18.2401 24.7315 17.3894 24.7315 16.3401C24.7315 15.2907 23.8809 14.4401 22.8315 14.4401C21.7822 14.4401 20.9315 15.2907 20.9315 16.3401C20.9315 17.3894 21.7822 18.2401 22.8315 18.2401Z" fill="#10AF31"/>
<path d="M17.8939 5.25208L10.8853 19.6619L19.0584 23.6371L26.067 9.22732L17.8939 5.25208Z" fill="#10AF31"/>
<path opacity="0.1" d="M11.7166 19.3485L18.4299 5.51017L17.8916 5.25684L10.8616 19.6652L19.0316 23.6235L19.3166 23.0218L11.7166 19.3485Z" fill="black"/>
<path d="M19.8233 8.32825C19.475 9.02491 18.6516 9.30991 17.9866 8.96158L17.86 8.89825L13.7433 17.3849L13.87 17.4482C14.5666 17.7966 14.8516 18.6199 14.5033 19.2849L17.0683 20.5199C17.4166 19.8232 18.24 19.5382 18.905 19.8866L19.0316 19.9499L23.1483 11.4632L23.0216 11.3999C22.325 11.0516 22.04 10.2282 22.3883 9.56325L19.8233 8.32825Z" fill="#98D049"/>
<path d="M18.4615 16.3399C19.5109 16.3399 20.3615 15.4893 20.3615 14.4399C20.3615 13.3906 19.5109 12.5399 18.4615 12.5399C17.4122 12.5399 16.5615 13.3906 16.5615 14.4399C16.5615 15.4893 17.4122 16.3399 18.4615 16.3399Z" fill="#10AF31"/>
<path d="M9.55053 6.55723L9.55054 22.5806L18.6389 22.5806L18.6389 6.55723L9.55053 6.55723Z" fill="#10AF31"/>
<path opacity="0.1" d="M10.1649 21.9133V6.55493H9.53162V22.5783H18.6199V21.9133H10.1649Z" fill="black"/>
<path d="M12.6666 8.48657C12.6666 9.24657 12.0649 9.87991 11.2733 9.87991H11.1466V19.2849H11.2733C12.0333 19.2849 12.6666 19.8866 12.6666 20.6782H15.5166C15.5166 19.9182 16.1183 19.2849 16.9099 19.2849H17.0366V9.87991H16.9099C16.1499 9.87991 15.5166 9.27824 15.5166 8.48657H12.6666Z" fill="#98D049"/>
<path d="M14.0917 16.4666C15.141 16.4666 15.9917 15.616 15.9917 14.5666C15.9917 13.5173 15.141 12.6666 14.0917 12.6666C13.0423 12.6666 12.1917 13.5173 12.1917 14.5666C12.1917 15.616 13.0423 16.4666 14.0917 16.4666Z" fill="#10AF31"/>
<path d="M12.7617 18.5567C15.0702 18.5567 16.9417 16.6852 16.9417 14.3767C16.9417 12.0681 15.0702 10.1967 12.7617 10.1967C10.4531 10.1967 8.58167 12.0681 8.58167 14.3767C8.58167 16.6852 10.4531 18.5567 12.7617 18.5567Z" fill="#F6B138"/>
<path d="M12.7616 17.1633C14.3007 17.1633 15.5483 15.9157 15.5483 14.3766C15.5483 12.8376 14.3007 11.59 12.7616 11.59C11.2226 11.59 9.97498 12.8376 9.97498 14.3766C9.97498 15.9157 11.2226 17.1633 12.7616 17.1633Z" fill="#985B0B"/>
<path d="M12.7616 16.3083C13.8285 16.3083 14.6933 15.4434 14.6933 14.3766C14.6933 13.3098 13.8285 12.4449 12.7616 12.4449C11.6948 12.4449 10.83 13.3098 10.83 14.3766C10.83 15.4434 11.6948 16.3083 12.7616 16.3083Z" fill="#DE9A2B"/>
<path d="M26.9483 32.7432H8.51827C7.34661 32.7432 6.39661 31.7932 6.39661 30.6216V17.1949C6.39661 16.0232 7.34661 15.0732 8.51827 15.0732H26.9799C28.1516 15.0732 29.1016 16.0232 29.1016 17.1949V30.6532C29.0699 31.8249 28.1199 32.7432 26.9483 32.7432Z" fill="#B17012"/>
<path opacity="0.1" d="M27.9299 32.395H9.46827C8.29661 32.395 7.34661 31.445 7.34661 30.2733V16.815C7.34661 16.1183 7.69494 15.485 8.23327 15.105C7.18827 15.2316 6.39661 16.1183 6.39661 17.195V30.6533C6.39661 31.825 7.34661 32.775 8.51827 32.775H26.9799C27.4233 32.775 27.8666 32.6166 28.2149 32.395C28.0883 32.3633 28.0249 32.395 27.9299 32.395Z" fill="black"/>
<path d="M29.9883 26.9166H23.4016C22.8633 26.9166 22.3883 26.4733 22.3883 25.9033V21.945C22.3883 21.4066 22.8316 20.9316 23.4016 20.9316H29.9566C30.495 20.9316 30.97 21.375 30.97 21.945V25.9033C30.97 26.4416 30.5266 26.9166 29.9883 26.9166Z" fill="#B17012"/>
<path d="M25.4599 25.3333C26.2469 25.3333 26.8849 24.6953 26.8849 23.9083C26.8849 23.1213 26.2469 22.4833 25.4599 22.4833C24.6729 22.4833 24.0349 23.1213 24.0349 23.9083C24.0349 24.6953 24.6729 25.3333 25.4599 25.3333Z" fill="#985B0B"/>
<path opacity="0.1" d="M25.745 25.2066C24.9533 25.2066 24.32 24.5732 24.32 23.7816C24.32 23.2749 24.605 22.8316 25.0167 22.5782C24.4467 22.7682 24.0667 23.3066 24.0667 23.9082C24.0667 24.6999 24.7 25.3332 25.4917 25.3332C25.745 25.3332 25.9983 25.2699 26.22 25.1116C26.0617 25.1749 25.9033 25.2066 25.745 25.2066Z" fill="black"/>
<path opacity="0.1" d="M30.4949 26.7266H23.9399C23.4016 26.7266 22.9266 26.2833 22.9266 25.7133V21.7866C22.9266 21.4383 23.1166 21.1216 23.3699 20.9633C22.8316 20.9949 22.4199 21.4066 22.4199 21.9766V25.9349C22.4199 26.4733 22.8633 26.9483 23.4333 26.9483H29.9883C30.2099 26.9483 30.3999 26.8849 30.5583 26.7899C30.5266 26.7266 30.4949 26.7266 30.4949 26.7266Z" fill="black"/>
<path opacity="0.1" d="M9.53162 11.7483C10.2283 10.8933 11.3049 10.3233 12.4766 10.2283C12.3816 10.2283 12.2866 10.2283 12.1916 10.2283C11.1783 10.2283 10.2599 10.5766 9.53162 11.1783V11.7483Z" fill="black"/>
</svg>
