<svg width="114" height="99" viewBox="0 0 114 99" fill="none" xmlns="http://www.w3.org/2000/svg">
<path d="M111.328 73.8969L71.6999 8.17689C70.0975 5.6701 67.8898 3.60709 65.2803 2.17807C62.6707 0.749043 59.7434 0 56.7683 0C53.7931 0 50.8658 0.749043 48.2563 2.17807C45.6467 3.60709 43.439 5.6701 41.8366 8.17689L2.20826 73.8969C0.808368 76.2304 0.0475005 78.8914 0.00215285 81.6123C-0.0431949 84.3331 0.628576 87.018 1.94992 89.3969C3.4776 92.0746 5.68883 94.2987 8.35763 95.8419C11.0264 97.385 14.0571 98.192 17.1399 98.1802H96.3966C99.4592 98.2129 102.476 97.4372 105.143 95.9313C107.81 94.4255 110.033 92.2428 111.587 89.6035C112.947 87.1999 113.64 84.4765 113.595 81.7151C113.549 78.9536 112.767 76.2545 111.328 73.8969ZM56.7683 77.5135C55.7464 77.5135 54.7475 77.2105 53.8978 76.6428C53.0482 76.0751 52.3859 75.2682 51.9949 74.3241C51.6038 73.38 51.5015 72.3412 51.7009 71.3389C51.9002 70.3367 52.3923 69.4161 53.1149 68.6935C53.8374 67.9709 54.7581 67.4789 55.7603 67.2795C56.7625 67.0801 57.8014 67.1825 58.7455 67.5735C59.6895 67.9646 60.4965 68.6268 61.0642 69.4764C61.6319 70.3261 61.9349 71.325 61.9349 72.3469C61.9349 73.7172 61.3906 75.0313 60.4216 76.0003C59.4527 76.9692 58.1385 77.5135 56.7683 77.5135ZM61.9349 56.8469C61.9349 58.2172 61.3906 59.5313 60.4216 60.5003C59.4527 61.4692 58.1385 62.0136 56.7683 62.0136C55.398 62.0136 54.0838 61.4692 53.1149 60.5003C52.1459 59.5313 51.6016 58.2172 51.6016 56.8469V36.1802C51.6016 34.8099 52.1459 33.4958 53.1149 32.5268C54.0838 31.5579 55.398 31.0136 56.7683 31.0136C58.1385 31.0136 59.4527 31.5579 60.4216 32.5268C61.3906 33.4958 61.9349 34.8099 61.9349 36.1802V56.8469Z" fill="#DC6803"/>
</svg>
